<?xml version="1.0" encoding="utf-8"?>
<!-- Generator: Adobe Illustrator 25.0.1, SVG Export Plug-In . SVG Version: 6.00 Build 0)  -->
<svg version="1.1" id="Layer_1" xmlns="http://www.w3.org/2000/svg" xmlns:xlink="http://www.w3.org/1999/xlink" x="0px" y="0px"
	 width="64px" height="64px" viewBox="0 0 64 64" enable-background="new 0 0 64 64" xml:space="preserve">
<g transform="translate(0,-988.3622)">
	<rect y="988.3622" opacity="0.1" fill="#8D8D8D" enable-background="new    " width="64" height="64.0001"/>
	<path fill="#787878" d="M1,988.3622c-0.5523,0-1,0.4477-1,1c0,0.5523,0.4477,1,1,1s1-0.4477,1-1
		C2,988.8099,1.5523,988.3622,1,988.3622z"/>
	<path fill="#8D8D8D" d="M5,988.3622c-0.5523,0-1,0.4477-1,1c0,0.5523,0.4477,1,1,1s1-0.4477,1-1
		C6,988.8099,5.5523,988.3622,5,988.3622z"/>
	<path fill="#8D8D8D" d="M9,988.3622c-0.5523,0-1,0.4477-1,1c0,0.5523,0.4477,1,1,1s1-0.4477,1-1
		C10,988.8099,9.5523,988.3622,9,988.3622z"/>
	<path fill="#8D8D8D" d="M13,988.3622c-0.5523,0-1,0.4477-1,1c0,0.5523,0.4477,1,1,1s1-0.4477,1-1
		C14,988.8099,13.5523,988.3622,13,988.3622z"/>
	<path fill="#8D8D8D" d="M17,988.3622c-0.5523,0-1,0.4477-1,1c0,0.5523,0.4477,1,1,1s1-0.4477,1-1
		C18,988.8099,17.5523,988.3622,17,988.3622z"/>
	<path fill="#8D8D8D" d="M21,988.3622c-0.5523,0-1,0.4477-1,1c0,0.5523,0.4477,1,1,1s1-0.4477,1-1
		C22,988.8099,21.5523,988.3622,21,988.3622z"/>
	<path fill="#8D8D8D" d="M25,988.3622c-0.5523,0-1,0.4477-1,1c0,0.5523,0.4477,1,1,1s1-0.4477,1-1
		C26,988.8099,25.5523,988.3622,25,988.3622z"/>
	<path fill="#8D8D8D" d="M29,988.3622c-0.5523,0-1,0.4477-1,1c0,0.5523,0.4477,1,1,1s1-0.4477,1-1
		C30,988.8099,29.5523,988.3622,29,988.3622z"/>
	<path fill="#8D8D8D" d="M33,988.3622c-0.5523,0-1,0.4477-1,1c0,0.5523,0.4477,1,1,1s1-0.4477,1-1
		C34,988.8099,33.5523,988.3622,33,988.3622z"/>
	<path fill="#8D8D8D" d="M37,988.3622c-0.5523,0-1,0.4477-1,1c0,0.5523,0.4477,1,1,1s1-0.4477,1-1
		C38,988.8099,37.5523,988.3622,37,988.3622z"/>
	<path fill="#8D8D8D" d="M41,988.3622c-0.5523,0-1,0.4477-1,1c0,0.5523,0.4477,1,1,1s1-0.4477,1-1
		C42,988.8099,41.5523,988.3622,41,988.3622z"/>
	<path fill="#8D8D8D" d="M45,988.3622c-0.5523,0-1,0.4477-1,1c0,0.5523,0.4477,1,1,1s1-0.4477,1-1
		C46,988.8099,45.5523,988.3622,45,988.3622z"/>
	<path fill="#8D8D8D" d="M49,988.3622c-0.5523,0-1,0.4477-1,1c0,0.5523,0.4477,1,1,1s1-0.4477,1-1
		C50,988.8099,49.5523,988.3622,49,988.3622z"/>
	<path fill="#8D8D8D" d="M53,988.3622c-0.5523,0-1,0.4477-1,1c0,0.5523,0.4477,1,1,1s1-0.4477,1-1
		C54,988.8099,53.5523,988.3622,53,988.3622z"/>
	<path fill="#8E8E8E" d="M57,988.3622c-0.5523,0-1,0.4477-1,1c0,0.5523,0.4477,1,1,1s1-0.4477,1-1
		C58,988.8099,57.5523,988.3622,57,988.3622z"/>
	<path fill="#8D8D8D" d="M61,988.3622c-0.5523,0-1,0.4477-1,1c0,0.5523,0.4477,1,1,1s1-0.4477,1-1
		C62,988.8099,61.5523,988.3622,61,988.3622z"/>
	<path fill="#8D8D8D" d="M3,990.3622c-0.5523,0-1,0.4477-1,1c0,0.5523,0.4477,1,1,1s1-0.4477,1-1
		C4,990.8099,3.5523,990.3622,3,990.3622z"/>
	<path fill="#8D8D8D" d="M7,990.3622c-0.5523,0-1,0.4477-1,1c0,0.5523,0.4477,1,1,1s1-0.4477,1-1
		C8,990.8099,7.5523,990.3622,7,990.3622z"/>
	<path fill="#8D8D8D" d="M11,990.3622c-0.5523,0-1,0.4477-1,1c0,0.5523,0.4477,1,1,1s1-0.4477,1-1
		C12,990.8099,11.5523,990.3622,11,990.3622z"/>
	<path fill="#8D8D8D" d="M15,990.3622c-0.5523,0-1,0.4477-1,1c0,0.5523,0.4477,1,1,1s1-0.4477,1-1
		C16,990.8099,15.5523,990.3622,15,990.3622z"/>
	<path fill="#8D8D8D" d="M19,990.3622c-0.5523,0-1,0.4477-1,1c0,0.5523,0.4477,1,1,1s1-0.4477,1-1
		C20,990.8099,19.5523,990.3622,19,990.3622z"/>
	<path fill="#8D8D8D" d="M23,990.3622c-0.5523,0-1,0.4477-1,1c0,0.5523,0.4477,1,1,1s1-0.4477,1-1
		C24,990.8099,23.5523,990.3622,23,990.3622z"/>
	<path fill="#8D8D8D" d="M27.5,990.3622c-0.5523,0-1,0.4477-1,1c0,0.5523,0.4477,1,1,1s1-0.4477,1-1
		C28.5,990.8099,28.0523,990.3622,27.5,990.3622z"/>
	<path fill="#8D8D8D" d="M31,990.3622c-0.5523,0-1,0.4477-1,1c0,0.5523,0.4477,1,1,1s1-0.4477,1-1
		C32,990.8099,31.5523,990.3622,31,990.3622z"/>
	<path fill="#8D8D8D" d="M35,990.3622c-0.5523,0-1,0.4477-1,1c0,0.5523,0.4477,1,1,1s1-0.4477,1-1
		C36,990.8099,35.5523,990.3622,35,990.3622z"/>
	<path fill="#8D8D8D" d="M39,990.3622c-0.5523,0-1,0.4477-1,1c0,0.5523,0.4477,1,1,1s1-0.4477,1-1
		C40,990.8099,39.5523,990.3622,39,990.3622z"/>
	<path fill="#A3A3A3" d="M43,990.3622c-0.5523,0-1,0.4477-1,1c0,0.5523,0.4477,1,1,1s1-0.4477,1-1
		C44,990.8099,43.5523,990.3622,43,990.3622z"/>
	<path fill="#8E8E8E" d="M47,990.3622c-0.5523,0-1,0.4477-1,1c0,0.5523,0.4477,1,1,1s1-0.4477,1-1
		C48,990.8099,47.5523,990.3622,47,990.3622z"/>
	<path fill="#8D8D8D" d="M51,990.3622c-0.5523,0-1,0.4477-1,1c0,0.5523,0.4477,1,1,1s1-0.4477,1-1
		C52,990.8099,51.5523,990.3622,51,990.3622z"/>
	<path fill="#8D8D8D" d="M55,990.3622c-0.5523,0-1,0.4477-1,1c0,0.5523,0.4477,1,1,1s1-0.4477,1-1
		C56,990.8099,55.5523,990.3622,55,990.3622z"/>
	<path fill="#8D8D8D" d="M59.5,990.3622c-0.5523,0-1,0.4477-1,1c0,0.5523,0.4477,1,1,1s1-0.4477,1-1
		C60.5,990.8099,60.0523,990.3622,59.5,990.3622z"/>
	<path fill="#8D8D8D" d="M63,990.3622c-0.5523,0-1,0.4477-1,1c0,0.5523,0.4477,1,1,1s1-0.4477,1-1
		C64,990.8099,63.5523,990.3622,63,990.3622z"/>
	<path fill="#8D8D8D" d="M1,992.3622c-0.5523,0-1,0.4477-1,1c0,0.5523,0.4477,1,1,1s1-0.4477,1-1
		C2,992.8099,1.5523,992.3622,1,992.3622z"/>
	<path fill="#8D8D8D" d="M5,992.3622c-0.5523,0-1,0.4477-1,1c0,0.5523,0.4477,1,1,1s1-0.4477,1-1
		C6,992.8099,5.5523,992.3622,5,992.3622z"/>
	<path fill="#8D8D8D" d="M9,992.3622c-0.5523,0-1,0.4477-1,1c0,0.5523,0.4477,1,1,1s1-0.4477,1-1
		C10,992.8099,9.5523,992.3622,9,992.3622z"/>
	<path fill="#8D8D8D" d="M13,992.3622c-0.5523,0-1,0.4477-1,1c0,0.5523,0.4477,1,1,1s1-0.4477,1-1
		C14,992.8099,13.5523,992.3622,13,992.3622z"/>
	<path fill="#8D8D8D" d="M17,992.3622c-0.5523,0-1,0.4477-1,1c0,0.5523,0.4477,1,1,1s1-0.4477,1-1
		C18,992.8099,17.5523,992.3622,17,992.3622z"/>
	<path fill="#8D8D8D" d="M21,992.3622c-0.5523,0-1,0.4477-1,1c0,0.5523,0.4477,1,1,1s1-0.4477,1-1
		C22,992.8099,21.5523,992.3622,21,992.3622z"/>
	<path fill="#8D8D8D" d="M25,992.3622c-0.5523,0-1,0.4477-1,1c0,0.5523,0.4477,1,1,1s1-0.4477,1-1
		C26,992.8099,25.5523,992.3622,25,992.3622z"/>
	<path fill="#BDBDBD" d="M29,992.3622c-0.5523,0-1,0.4477-1,1c0,0.5523,0.4477,1,1,1s1-0.4477,1-1
		C30,992.8099,29.5523,992.3622,29,992.3622z"/>
	<path fill="#8D8D8D" d="M33,992.3622c-0.5523,0-1,0.4477-1,1c0,0.5523,0.4477,1,1,1s1-0.4477,1-1
		C34,992.8099,33.5523,992.3622,33,992.3622z"/>
	<path fill="#8D8D8D" d="M37,992.3622c-0.5523,0-1,0.4477-1,1c0,0.5523,0.4477,1,1,1s1-0.4477,1-1
		C38,992.8099,37.5523,992.3622,37,992.3622z"/>
	<path fill="#8D8D8D" d="M41,992.3622c-0.5523,0-1,0.4477-1,1c0,0.5523,0.4477,1,1,1s1-0.4477,1-1
		C42,992.8099,41.5523,992.3622,41,992.3622z"/>
	<path fill="#8D8D8D" d="M45,992.3622c-0.5523,0-1,0.4477-1,1c0,0.5523,0.4477,1,1,1s1-0.4477,1-1
		C46,992.8099,45.5523,992.3622,45,992.3622z"/>
	<path fill="#8D8D8D" d="M49,992.3622c-0.5523,0-1,0.4477-1,1c0,0.5523,0.4477,1,1,1s1-0.4477,1-1
		C50,992.8099,49.5523,992.3622,49,992.3622z"/>
	<path fill="#8E8E8E" d="M53,992.3622c-0.5523,0-1,0.4477-1,1c0,0.5523,0.4477,1,1,1s1-0.4477,1-1
		C54,992.8099,53.5523,992.3622,53,992.3622z"/>
	<path fill="#8D8D8D" d="M57,992.3622c-0.5523,0-1,0.4477-1,1c0,0.5523,0.4477,1,1,1s1-0.4477,1-1
		C58,992.8099,57.5523,992.3622,57,992.3622z"/>
	<path fill="#8D8D8D" d="M61,992.3622c-0.5523,0-1,0.4477-1,1c0,0.5523,0.4477,1,1,1s1-0.4477,1-1
		C62,992.8099,61.5523,992.3622,61,992.3622z"/>
	<path fill="#8D8D8D" d="M3,994.3622c-0.5523,0-1,0.4476-1,1c0,0.5522,0.4477,1,1,1s1-0.4478,1-1
		C4,994.8098,3.5523,994.3622,3,994.3622z"/>
	<path fill="#8D8D8D" d="M7,994.3622c-0.5523,0-1,0.4476-1,1c0,0.5522,0.4477,1,1,1s1-0.4478,1-1
		C8,994.8098,7.5523,994.3622,7,994.3622z"/>
	<path fill="#8D8D8D" d="M11,994.3622c-0.5523,0-1,0.4476-1,1c0,0.5522,0.4477,1,1,1s1-0.4478,1-1
		C12,994.8098,11.5523,994.3622,11,994.3622z"/>
	<path fill="#787878" d="M15,994.3622c-0.5523,0-1,0.4476-1,1c0,0.5522,0.4477,1,1,1s1-0.4478,1-1
		C16,994.8098,15.5523,994.3622,15,994.3622z"/>
	<path fill="#8D8D8D" d="M19,994.3622c-0.5523,0-1,0.4476-1,1c0,0.5522,0.4477,1,1,1s1-0.4478,1-1
		C20,994.8098,19.5523,994.3622,19,994.3622z"/>
	<path fill="#8D8D8D" d="M23,994.3622c-0.5523,0-1,0.4476-1,1c0,0.5522,0.4477,1,1,1s1-0.4478,1-1
		C24,994.8098,23.5523,994.3622,23,994.3622z"/>
	<path fill="#8D8D8D" d="M27,994.3622c-0.5523,0-1,0.4476-1,1c0,0.5522,0.4477,1,1,1s1-0.4478,1-1
		C28,994.8098,27.5523,994.3622,27,994.3622z"/>
	<path fill="#8D8D8D" d="M31,994.3622c-0.5523,0-1,0.4476-1,1c0,0.5522,0.4477,1,1,1s1-0.4478,1-1
		C32,994.8098,31.5523,994.3622,31,994.3622z"/>
	<path fill="#8D8D8D" d="M35,994.3622c-0.5523,0-1,0.4476-1,1c0,0.5522,0.4477,1,1,1s1-0.4478,1-1
		C36,994.8098,35.5523,994.3622,35,994.3622z"/>
	<path fill="#8D8D8D" d="M39,994.3622c-0.5523,0-1,0.4476-1,1c0,0.5522,0.4477,1,1,1s1-0.4478,1-1
		C40,994.8098,39.5523,994.3622,39,994.3622z"/>
	<path fill="#8D8D8D" d="M43,994.3622c-0.5523,0-1,0.4476-1,1c0,0.5522,0.4477,1,1,1s1-0.4478,1-1
		C44,994.8098,43.5523,994.3622,43,994.3622z"/>
	<path fill="#C4C4C4" d="M47,994.3622c-0.5523,0-1,0.4476-1,1c0,0.5522,0.4477,1,1,1s1-0.4478,1-1
		C48,994.8098,47.5523,994.3622,47,994.3622z"/>
	<path fill="#8D8D8D" d="M51,994.3622c-0.5523,0-1,0.4476-1,1c0,0.5522,0.4477,1,1,1s1-0.4478,1-1
		C52,994.8098,51.5523,994.3622,51,994.3622z"/>
	<path fill="#8D8D8D" d="M55,994.3622c-0.5523,0-1,0.4476-1,1c0,0.5522,0.4477,1,1,1s1-0.4478,1-1
		C56,994.8098,55.5523,994.3622,55,994.3622z"/>
	<path fill="#8D8D8D" d="M59,994.3622c-0.5523,0-1,0.4476-1,1c0,0.5522,0.4477,1,1,1s1-0.4478,1-1
		C60,994.8098,59.5523,994.3622,59,994.3622z"/>
	<path fill="#8D8D8D" d="M63,994.3622c-0.5523,0-1,0.4476-1,1c0,0.5522,0.4477,1,1,1s1-0.4478,1-1
		C64,994.8098,63.5523,994.3622,63,994.3622z"/>
	<path fill="#8D8D8D" d="M1,996.3622c-0.5523,0-1,0.4476-1,1c0,0.5522,0.4477,1,1,1s1-0.4478,1-1
		C2,996.8098,1.5523,996.3622,1,996.3622z"/>
	<path fill="#787878" d="M5.5,996.3622c-0.5523,0-1,0.4476-1,1c0,0.5522,0.4477,1,1,1s1-0.4478,1-1
		C6.5,996.8098,6.0523,996.3622,5.5,996.3622z"/>
	<path fill="#8D8D8D" d="M9,996.3622c-0.5523,0-1,0.4476-1,1c0,0.5522,0.4477,1,1,1s1-0.4478,1-1
		C10,996.8098,9.5523,996.3622,9,996.3622z"/>
	<path fill="#8D8D8D" d="M13,996.3622c-0.5523,0-1,0.4476-1,1c0,0.5522,0.4477,1,1,1s1-0.4478,1-1
		C14,996.8098,13.5523,996.3622,13,996.3622z"/>
	<path fill="#8D8D8D" d="M17,996.3622c-0.5523,0-1,0.4476-1,1c0,0.5522,0.4477,1,1,1s1-0.4478,1-1
		C18,996.8098,17.5523,996.3622,17,996.3622z"/>
	<path fill="#8D8D8D" d="M21,996.3622c-0.5523,0-1,0.4476-1,1c0,0.5522,0.4477,1,1,1s1-0.4478,1-1
		C22,996.8098,21.5523,996.3622,21,996.3622z"/>
	<path fill="#8D8D8D" d="M25,996.3622c-0.5523,0-1,0.4476-1,1c0,0.5522,0.4477,1,1,1s1-0.4478,1-1
		C26,996.8098,25.5523,996.3622,25,996.3622z"/>
	<path fill="#8D8D8D" d="M29,996.3622c-0.5523,0-1,0.4476-1,1c0,0.5522,0.4477,1,1,1s1-0.4478,1-1
		C30,996.8098,29.5523,996.3622,29,996.3622z"/>
	<path fill="#8D8D8D" d="M33,996.3622c-0.5523,0-1,0.4476-1,1c0,0.5522,0.4477,1,1,1s1-0.4478,1-1
		C34,996.8098,33.5523,996.3622,33,996.3622z"/>
	<path fill="#8D8D8D" d="M37.5,996.3622c-0.5523,0-1,0.4476-1,1c0,0.5522,0.4477,1,1,1s1-0.4478,1-1
		C38.5,996.8098,38.0523,996.3622,37.5,996.3622z"/>
	<path fill="#8D8D8D" d="M41,996.3622c-0.5523,0-1,0.4476-1,1c0,0.5522,0.4477,1,1,1s1-0.4478,1-1
		C42,996.8098,41.5523,996.3622,41,996.3622z"/>
	<path fill="#8D8D8D" d="M45,996.3622c-0.5523,0-1,0.4476-1,1c0,0.5522,0.4477,1,1,1s1-0.4478,1-1
		C46,996.8098,45.5523,996.3622,45,996.3622z"/>
	<path fill="#8D8D8D" d="M49,996.3622c-0.5523,0-1,0.4476-1,1c0,0.5522,0.4477,1,1,1s1-0.4478,1-1
		C50,996.8098,49.5523,996.3622,49,996.3622z"/>
	<path fill="#8D8D8D" d="M53,996.3622c-0.5523,0-1,0.4476-1,1c0,0.5522,0.4477,1,1,1s1-0.4478,1-1
		C54,996.8098,53.5523,996.3622,53,996.3622z"/>
	<path fill="#8D8D8D" d="M57,996.3622c-0.5523,0-1,0.4476-1,1c0,0.5522,0.4477,1,1,1s1-0.4478,1-1
		C58,996.8098,57.5523,996.3622,57,996.3622z"/>
	<path fill="#8D8D8D" d="M61,996.3622c-0.5523,0-1,0.4476-1,1c0,0.5522,0.4477,1,1,1s1-0.4478,1-1
		C62,996.8098,61.5523,996.3622,61,996.3622z"/>
	<path fill="#8D8D8D" d="M3,998.3622c-0.5523,0-1,0.4476-1,1c0,0.5522,0.4477,1,1,1s1-0.4478,1-1
		C4,998.8098,3.5523,998.3622,3,998.3622z"/>
	<path fill="#787878" d="M7,998.3622c-0.5523,0-1,0.4476-1,1c0,0.5522,0.4477,1,1,1s1-0.4478,1-1
		C8,998.8098,7.5523,998.3622,7,998.3622z"/>
	<path fill="#8D8D8D" d="M11,998.3622c-0.5523,0-1,0.4476-1,1c0,0.5522,0.4477,1,1,1s1-0.4478,1-1
		C12,998.8098,11.5523,998.3622,11,998.3622z"/>
	<path fill="#8D8D8D" d="M15,998.3622c-0.5523,0-1,0.4476-1,1c0,0.5522,0.4477,1,1,1s1-0.4478,1-1
		C16,998.8098,15.5523,998.3622,15,998.3622z"/>
	<path fill="#8D8D8D" d="M19,998.3622c-0.5523,0-1,0.4476-1,1c0,0.5522,0.4477,1,1,1s1-0.4478,1-1
		C20,998.8098,19.5523,998.3622,19,998.3622z"/>
	<path fill="#8D8D8D" d="M23,998.3622c-0.5523,0-1,0.4476-1,1c0,0.5522,0.4477,1,1,1s1-0.4478,1-1
		C24,998.8098,23.5523,998.3622,23,998.3622z"/>
	<path fill="#8D8D8D" d="M27,998.3622c-0.5523,0-1,0.4476-1,1c0,0.5522,0.4477,1,1,1s1-0.4478,1-1
		C28,998.8098,27.5523,998.3622,27,998.3622z"/>
	<path fill="#8D8D8D" d="M31,998.3622c-0.5523,0-1,0.4476-1,1c0,0.5522,0.4477,1,1,1s1-0.4478,1-1
		C32,998.8098,31.5523,998.3622,31,998.3622z"/>
	<path fill="#8D8D8D" d="M35,998.3622c-0.5523,0-1,0.4476-1,1c0,0.5522,0.4477,1,1,1s1-0.4478,1-1
		C36,998.8098,35.5523,998.3622,35,998.3622z"/>
	<path fill="#A3A3A3" d="M39,998.3622c-0.5523,0-1,0.4476-1,1c0,0.5522,0.4477,1,1,1s1-0.4478,1-1
		C40,998.8098,39.5523,998.3622,39,998.3622z"/>
	<path fill="#8D8D8D" d="M43,998.3622c-0.5523,0-1,0.4476-1,1c0,0.5522,0.4477,1,1,1s1-0.4478,1-1
		C44,998.8098,43.5523,998.3622,43,998.3622z"/>
	<path fill="#8D8D8D" fill-opacity="0.7295" d="M47,998.3622c-0.5523,0-1,0.4476-1,1c0,0.5522,0.4477,1,1,1s1-0.4478,1-1
		C48,998.8098,47.5523,998.3622,47,998.3622z"/>
	<path fill="#8D8D8D" d="M51,998.3622c-0.5523,0-1,0.4476-1,1c0,0.5522,0.4477,1,1,1s1-0.4478,1-1
		C52,998.8098,51.5523,998.3622,51,998.3622z"/>
	<path fill="#8D8D8D" d="M55,998.3622c-0.5523,0-1,0.4476-1,1c0,0.5522,0.4477,1,1,1s1-0.4478,1-1
		C56,998.8098,55.5523,998.3622,55,998.3622z"/>
	<path fill="#8D8D8D" d="M59,998.3622c-0.5523,0-1,0.4476-1,1c0,0.5522,0.4477,1,1,1s1-0.4478,1-1
		C60,998.8098,59.5523,998.3622,59,998.3622z"/>
	<path fill="#8D8D8D" d="M63,998.3622c-0.5523,0-1,0.4476-1,1c0,0.5522,0.4477,1,1,1s1-0.4478,1-1
		C64,998.8098,63.5523,998.3622,63,998.3622z"/>
	<path fill="#8D8D8D" d="M1,1000.3622c-0.5523,0-1,0.4476-1,1c0,0.5522,0.4477,1,1,1s1-0.4478,1-1
		C2,1000.8098,1.5523,1000.3622,1,1000.3622z"/>
	<path fill="#BDBDBD" d="M5,1000.3622c-0.5523,0-1,0.4476-1,1c0,0.5522,0.4477,1,1,1s1-0.4478,1-1
		C6,1000.8098,5.5523,1000.3622,5,1000.3622z"/>
	<path fill="#8D8D8D" d="M9,1000.3622c-0.5523,0-1,0.4476-1,1c0,0.5522,0.4477,1,1,1s1-0.4478,1-1
		C10,1000.8098,9.5523,1000.3622,9,1000.3622z"/>
	<path fill="#8D8D8D" d="M13,1000.3622c-0.5523,0-1,0.4476-1,1c0,0.5522,0.4477,1,1,1s1-0.4478,1-1
		C14,1000.8098,13.5523,1000.3622,13,1000.3622z"/>
	<path fill="#8D8D8D" d="M17,1000.3622c-0.5523,0-1,0.4476-1,1c0,0.5522,0.4477,1,1,1s1-0.4478,1-1
		C18,1000.8098,17.5523,1000.3622,17,1000.3622z"/>
	<path fill="#8D8D8D" d="M21,1000.3622c-0.5523,0-1,0.4476-1,1c0,0.5522,0.4477,1,1,1s1-0.4478,1-1
		C22,1000.8098,21.5523,1000.3622,21,1000.3622z"/>
	<path fill="#8D8D8D" d="M25,1000.3622c-0.5523,0-1,0.4476-1,1c0,0.5522,0.4477,1,1,1s1-0.4478,1-1
		C26,1000.8098,25.5523,1000.3622,25,1000.3622z"/>
	<path fill="#8D8D8D" d="M29,1000.3622c-0.5523,0-1,0.4476-1,1c0,0.5522,0.4477,1,1,1s1-0.4478,1-1
		C30,1000.8098,29.5523,1000.3622,29,1000.3622z"/>
	<path fill="#8D8D8D" d="M33,1000.3622c-0.5523,0-1,0.4476-1,1c0,0.5522,0.4477,1,1,1s1-0.4478,1-1
		C34,1000.8098,33.5523,1000.3622,33,1000.3622z"/>
	<path fill="#8D8D8D" d="M37,1000.3622c-0.5523,0-1,0.4476-1,1c0,0.5522,0.4477,1,1,1s1-0.4478,1-1
		C38,1000.8098,37.5523,1000.3622,37,1000.3622z"/>
	<path fill="#8D8D8D" d="M41,1000.3622c-0.5523,0-1,0.4476-1,1c0,0.5522,0.4477,1,1,1s1-0.4478,1-1
		C42,1000.8098,41.5523,1000.3622,41,1000.3622z"/>
	<path fill="#8D8D8D" d="M45,1000.3622c-0.5523,0-1,0.4476-1,1c0,0.5522,0.4477,1,1,1s1-0.4478,1-1
		C46,1000.8098,45.5523,1000.3622,45,1000.3622z"/>
	<path fill="#8D8D8D" d="M49,1000.3622c-0.5523,0-1,0.4476-1,1c0,0.5522,0.4477,1,1,1s1-0.4478,1-1
		C50,1000.8098,49.5523,1000.3622,49,1000.3622z"/>
	<path fill="#8D8D8D" d="M53,1000.3622c-0.5523,0-1,0.4476-1,1c0,0.5522,0.4477,1,1,1s1-0.4478,1-1
		C54,1000.8098,53.5523,1000.3622,53,1000.3622z"/>
	<path fill="#8D8D8D" d="M57,1000.3622c-0.5523,0-1,0.4476-1,1c0,0.5522,0.4477,1,1,1s1-0.4478,1-1
		C58,1000.8098,57.5523,1000.3622,57,1000.3622z"/>
	<path fill="#8D8D8D" d="M61,1000.3622c-0.5523,0-1,0.4476-1,1c0,0.5522,0.4477,1,1,1s1-0.4478,1-1
		C62,1000.8098,61.5523,1000.3622,61,1000.3622z"/>
	<path fill="#8D8D8D" d="M3,1002.3622c-0.5523,0-1,0.4476-1,1c0,0.5522,0.4477,1,1,1s1-0.4478,1-1
		C4,1002.8098,3.5523,1002.3622,3,1002.3622z"/>
	<path fill="#8D8D8D" d="M7,1002.3622c-0.5523,0-1,0.4476-1,1c0,0.5522,0.4477,1,1,1s1-0.4478,1-1
		C8,1002.8098,7.5523,1002.3622,7,1002.3622z"/>
	<path fill="#8D8D8D" d="M11,1002.3622c-0.5523,0-1,0.4476-1,1c0,0.5522,0.4477,1,1,1s1-0.4478,1-1
		C12,1002.8098,11.5523,1002.3622,11,1002.3622z"/>
	<path fill="#8D8D8D" d="M15,1002.3622c-0.5523,0-1,0.4476-1,1c0,0.5522,0.4477,1,1,1s1-0.4478,1-1
		C16,1002.8098,15.5523,1002.3622,15,1002.3622z"/>
	<path fill="#8D8D8D" d="M19,1002.3622c-0.5523,0-1,0.4477-1,1c0,0.5522,0.4477,1,1,1s1-0.4478,1-1
		C20,1002.8099,19.5523,1002.3622,19,1002.3622z"/>
	<path fill="#C4C4C4" d="M23,1002.3622c-0.5523,0-1,0.4476-1,1c0,0.5522,0.4477,1,1,1s1-0.4478,1-1
		C24,1002.8098,23.5523,1002.3622,23,1002.3622z"/>
	<path fill="#8D8D8D" d="M27,1002.3622c-0.5523,0-1,0.4476-1,1c0,0.5522,0.4477,1,1,1s1-0.4478,1-1
		C28,1002.8098,27.5523,1002.3622,27,1002.3622z"/>
	<path fill="#8D8D8D" d="M31,1002.3622c-0.5523,0-1,0.4476-1,1c0,0.5522,0.4477,1,1,1s1-0.4478,1-1
		C32,1002.8098,31.5523,1002.3622,31,1002.3622z"/>
	<path fill="#7D7D7D" d="M35,1002.3622c-0.5523,0-1,0.4476-1,1c0,0.5522,0.4477,1,1,1s1-0.4478,1-1
		C36,1002.8098,35.5523,1002.3622,35,1002.3622z"/>
	<path fill="#8D8D8D" d="M39,1002.3622c-0.5523,0-1,0.4476-1,1c0,0.5522,0.4477,1,1,1s1-0.4478,1-1
		C40,1002.8098,39.5523,1002.3622,39,1002.3622z"/>
	<path fill="#8D8D8D" d="M43,1002.3622c-0.5523,0-1,0.4476-1,1c0,0.5522,0.4477,1,1,1s1-0.4478,1-1
		C44,1002.8098,43.5523,1002.3622,43,1002.3622z"/>
	<path fill="#8D8D8D" d="M47,1002.3622c-0.5523,0-1,0.4476-1,1c0,0.5522,0.4477,1,1,1s1-0.4478,1-1
		C48,1002.8098,47.5523,1002.3622,47,1002.3622z"/>
	<path fill="#8D8D8D" d="M51,1002.3622c-0.5523,0-1,0.4477-1,1c0,0.5522,0.4477,1,1,1s1-0.4478,1-1
		C52,1002.8099,51.5523,1002.3622,51,1002.3622z"/>
	<path fill="#8D8D8D" d="M55,1002.3622c-0.5523,0-1,0.4476-1,1c0,0.5522,0.4477,1,1,1s1-0.4478,1-1
		C56,1002.8098,55.5523,1002.3622,55,1002.3622z"/>
	<path fill="#8E8E8E" d="M59,1002.3622c-0.5523,0-1,0.4476-1,1c0,0.5522,0.4477,1,1,1s1-0.4478,1-1
		C60,1002.8098,59.5523,1002.3622,59,1002.3622z"/>
	<path fill="#8D8D8D" d="M63,1002.3622c-0.5523,0-1,0.4476-1,1c0,0.5522,0.4477,1,1,1s1-0.4478,1-1
		C64,1002.8098,63.5523,1002.3622,63,1002.3622z"/>
	<path fill="#8D8D8D" d="M17,1003.8544c-0.5523,0-1,0.4477-1,1c0,0.5523,0.4477,1,1,1s1-0.4477,1-1
		C18,1004.3021,17.5523,1003.8544,17,1003.8544z"/>
	<path fill="#8D8D8D" d="M49,1003.8544c-0.5523,0-1,0.4477-1,1c0,0.5523,0.4477,1,1,1s1-0.4477,1-1
		C50,1004.3021,49.5523,1003.8544,49,1003.8544z"/>
	<path fill="#8D8D8D" d="M1,1004.3622c-0.5523,0-1,0.4476-1,1c0,0.5522,0.4477,1,1,1s1-0.4478,1-1
		C2,1004.8098,1.5523,1004.3622,1,1004.3622z"/>
	<path fill="#8D8D8D" d="M5,1004.3622c-0.5523,0-1,0.4476-1,1c0,0.5522,0.4477,1,1,1s1-0.4478,1-1
		C6,1004.8098,5.5523,1004.3622,5,1004.3622z"/>
	<path fill="#8D8D8D" d="M9,1004.3622c-0.5523,0-1,0.4476-1,1c0,0.5522,0.4477,1,1,1s1-0.4478,1-1
		C10,1004.8098,9.5523,1004.3622,9,1004.3622z"/>
	<path fill="#8D8D8D" d="M13,1004.3622c-0.5523,0-1,0.4476-1,1c0,0.5522,0.4477,1,1,1s1-0.4478,1-1
		C14,1004.8098,13.5523,1004.3622,13,1004.3622z"/>
	<path fill="#8D8D8D" d="M21,1004.3622c-0.5523,0-1,0.4476-1,1c0,0.5522,0.4477,1,1,1s1-0.4478,1-1
		C22,1004.8098,21.5523,1004.3622,21,1004.3622z"/>
	<path fill="#8D8D8D" d="M25,1004.3622c-0.5523,0-1,0.4476-1,1c0,0.5522,0.4477,1,1,1s1-0.4478,1-1
		C26,1004.8098,25.5523,1004.3622,25,1004.3622z"/>
	<path fill="#A3A3A3" d="M29,1004.3622c-0.5523,0-1,0.4476-1,1c0,0.5522,0.4477,1,1,1s1-0.4478,1-1
		C30,1004.8098,29.5523,1004.3622,29,1004.3622z"/>
	<path fill="#8D8D8D" d="M33,1004.3622c-0.5523,0-1,0.4476-1,1c0,0.5522,0.4477,1,1,1s1-0.4478,1-1
		C34,1004.8098,33.5523,1004.3622,33,1004.3622z"/>
	<path fill="#8D8D8D" d="M37,1004.3622c-0.5523,0-1,0.4476-1,1c0,0.5522,0.4477,1,1,1s1-0.4478,1-1
		C38,1004.8098,37.5523,1004.3622,37,1004.3622z"/>
	<path fill="#8D8D8D" d="M41,1004.3622c-0.5523,0-1,0.4476-1,1c0,0.5522,0.4477,1,1,1s1-0.4478,1-1
		C42,1004.8098,41.5523,1004.3622,41,1004.3622z"/>
	<path fill="#8D8D8D" d="M45,1004.3622c-0.5523,0-1,0.4476-1,1c0,0.5522,0.4477,1,1,1s1-0.4478,1-1
		C46,1004.8098,45.5523,1004.3622,45,1004.3622z"/>
	<path fill="#8D8D8D" d="M53,1004.3622c-0.5523,0-1,0.4476-1,1c0,0.5522,0.4477,1,1,1s1-0.4478,1-1
		C54,1004.8098,53.5523,1004.3622,53,1004.3622z"/>
	<path fill="#8D8D8D" d="M57,1004.3622c-0.5523,0-1,0.4476-1,1c0,0.5522,0.4477,1,1,1s1-0.4478,1-1
		C58,1004.8098,57.5523,1004.3622,57,1004.3622z"/>
	<path fill="#8D8D8D" d="M61,1004.3622c-0.5523,0-1,0.4476-1,1c0,0.5522,0.4477,1,1,1s1-0.4478,1-1
		C62,1004.8098,61.5523,1004.3622,61,1004.3622z"/>
	<path fill="#8D8D8D" d="M3,1006.3622c-0.5523,0-1,0.4476-1,1c0,0.5522,0.4477,1,1,1s1-0.4478,1-1
		C4,1006.8098,3.5523,1006.3622,3,1006.3622z"/>
	<path fill="#8D8D8D" d="M7,1006.3622c-0.5523,0-1,0.4476-1,1c0,0.5522,0.4477,1,1,1s1-0.4478,1-1
		C8,1006.8098,7.5523,1006.3622,7,1006.3622z"/>
	<path opacity="0.862" fill="#4D4D4D" enable-background="new    " d="M11,1006.3622c-0.5523,0-1,0.4476-1,1c0,0.5522,0.4477,1,1,1
		s1-0.4478,1-1C12,1006.8098,11.5523,1006.3622,11,1006.3622z"/>
	<path fill="#8D8D8D" d="M15,1006.3622c-0.5523,0-1,0.4476-1,1c0,0.5522,0.4477,1,1,1s1-0.4478,1-1
		C16,1006.8098,15.5523,1006.3622,15,1006.3622z"/>
	<path fill="#7D7D7D" d="M19,1006.3622c-0.5523,0-1,0.4476-1,1c0,0.5522,0.4477,1,1,1s1-0.4478,1-1
		C20,1006.8098,19.5523,1006.3622,19,1006.3622z"/>
	<path fill="#8D8D8D" d="M23,1006.3622c-0.5523,0-1,0.4476-1,1c0,0.5522,0.4477,1,1,1s1-0.4478,1-1
		C24,1006.8098,23.5523,1006.3622,23,1006.3622z"/>
	<path fill="#BDBDBD" d="M27,1006.3622c-0.5523,0-1,0.4476-1,1c0,0.5522,0.4477,1,1,1s1-0.4478,1-1
		C28,1006.8098,27.5523,1006.3622,27,1006.3622z"/>
	<path fill="#8D8D8D" d="M31,1006.3622c-0.5523,0-1,0.4476-1,1c0,0.5522,0.4477,1,1,1s1-0.4478,1-1
		C32,1006.8098,31.5523,1006.3622,31,1006.3622z"/>
	<path fill="#8D8D8D" d="M35,1006.3622c-0.5523,0-1,0.4476-1,1c0,0.5522,0.4477,1,1,1s1-0.4478,1-1
		C36,1006.8098,35.5523,1006.3622,35,1006.3622z"/>
	<path fill="#8D8D8D" d="M39,1006.3622c-0.5523,0-1,0.4476-1,1c0,0.5522,0.4477,1,1,1s1-0.4478,1-1
		C40,1006.8098,39.5523,1006.3622,39,1006.3622z"/>
	<path fill="#8D8D8D" d="M43,1006.3622c-0.5523,0-1,0.4476-1,1c0,0.5522,0.4477,1,1,1s1-0.4478,1-1
		C44,1006.8098,43.5523,1006.3622,43,1006.3622z"/>
	<path fill="#8D8D8D" d="M47,1006.3622c-0.5523,0-1,0.4476-1,1c0,0.5522,0.4477,1,1,1s1-0.4478,1-1
		C48,1006.8098,47.5523,1006.3622,47,1006.3622z"/>
	<path fill="#8D8D8D" d="M51,1006.3622c-0.5523,0-1,0.4476-1,1c0,0.5522,0.4477,1,1,1s1-0.4478,1-1
		C52,1006.8098,51.5523,1006.3622,51,1006.3622z"/>
	<path fill="#8D8D8D" d="M55,1006.3622c-0.5523,0-1,0.4476-1,1c0,0.5522,0.4477,1,1,1s1-0.4478,1-1
		C56,1006.8098,55.5523,1006.3622,55,1006.3622z"/>
	<path fill="#8D8D8D" d="M59,1006.3622c-0.5523,0-1,0.4476-1,1c0,0.5522,0.4477,1,1,1s1-0.4478,1-1
		C60,1006.8098,59.5523,1006.3622,59,1006.3622z"/>
	<path fill="#8D8D8D" d="M63,1006.3622c-0.5523,0-1,0.4476-1,1c0,0.5522,0.4477,1,1,1s1-0.4478,1-1
		C64,1006.8098,63.5523,1006.3622,63,1006.3622z"/>
	<path fill="#8D8D8D" d="M1,1008.3622c-0.5523,0-1,0.4476-1,1c0,0.5522,0.4477,1,1,1s1-0.4478,1-1
		C2,1008.8098,1.5523,1008.3622,1,1008.3622z"/>
	<path fill="#8D8D8D" d="M5,1008.3622c-0.5523,0-1,0.4476-1,1c0,0.5522,0.4477,1,1,1s1-0.4478,1-1
		C6,1008.8098,5.5523,1008.3622,5,1008.3622z"/>
	<path fill="#8D8D8D" d="M9,1008.3622c-0.5523,0-1,0.4476-1,1c0,0.5522,0.4477,1,1,1s1-0.4478,1-1
		C10,1008.8098,9.5523,1008.3622,9,1008.3622z"/>
	<path fill="#8D8D8D" d="M13,1008.3622c-0.5523,0-1,0.4476-1,1c0,0.5522,0.4477,1,1,1s1-0.4478,1-1
		C14,1008.8098,13.5523,1008.3622,13,1008.3622z"/>
	<path fill="#8D8D8D" d="M17,1008.3622c-0.5523,0-1,0.4476-1,1c0,0.5522,0.4477,1,1,1s1-0.4478,1-1
		C18,1008.8098,17.5523,1008.3622,17,1008.3622z"/>
	<path fill="#8D8D8D" d="M21,1008.3622c-0.5523,0-1,0.4476-1,1c0,0.5522,0.4477,1,1,1s1-0.4478,1-1
		C22,1008.8098,21.5523,1008.3622,21,1008.3622z"/>
	<path fill="#8D8D8D" d="M25,1008.3622c-0.5523,0-1,0.4476-1,1c0,0.5522,0.4477,1,1,1s1-0.4478,1-1
		C26,1008.8098,25.5523,1008.3622,25,1008.3622z"/>
	<path fill="#8D8D8D" d="M29,1008.3622c-0.5523,0-1,0.4476-1,1c0,0.5522,0.4477,1,1,1s1-0.4478,1-1
		C30,1008.8098,29.5523,1008.3622,29,1008.3622z"/>
	<path fill="#8D8D8D" d="M33,1008.3622c-0.5523,0-1,0.4476-1,1c0,0.5522,0.4477,1,1,1s1-0.4478,1-1
		C34,1008.8098,33.5523,1008.3622,33,1008.3622z"/>
	<path fill="#8D8D8D" d="M37,1008.3622c-0.5523,0-1,0.4476-1,1c0,0.5522,0.4477,1,1,1s1-0.4478,1-1
		C38,1008.8098,37.5523,1008.3622,37,1008.3622z"/>
	<path fill="#8D8D8D" d="M41,1008.3622c-0.5523,0-1,0.4476-1,1c0,0.5522,0.4477,1,1,1s1-0.4478,1-1
		C42,1008.8098,41.5523,1008.3622,41,1008.3622z"/>
	<path fill="#8D8D8D" d="M45,1008.3622c-0.5523,0-1,0.4476-1,1c0,0.5522,0.4477,1,1,1s1-0.4478,1-1
		C46,1008.8098,45.5523,1008.3622,45,1008.3622z"/>
	<path fill="#8D8D8D" d="M49,1008.3622c-0.5523,0-1,0.4476-1,1c0,0.5522,0.4477,1,1,1s1-0.4478,1-1
		C50,1008.8098,49.5523,1008.3622,49,1008.3622z"/>
	<path fill="#8D8D8D" d="M53,1008.3622c-0.5523,0-1,0.4476-1,1c0,0.5522,0.4477,1,1,1s1-0.4478,1-1
		C54,1008.8098,53.5523,1008.3622,53,1008.3622z"/>
	<path fill="#8D8D8D" d="M57,1008.3622c-0.5523,0-1,0.4476-1,1c0,0.5522,0.4477,1,1,1s1-0.4478,1-1
		C58,1008.8098,57.5523,1008.3622,57,1008.3622z"/>
	<path fill="#8D8D8D" d="M61,1008.3622c-0.5523,0-1,0.4476-1,1c0,0.5522,0.4477,1,1,1s1-0.4478,1-1
		C62,1008.8098,61.5523,1008.3622,61,1008.3622z"/>
	<path fill="#8D8D8D" d="M3,1010.3622c-0.5523,0-1,0.4476-1,1c0,0.5522,0.4477,1,1,1s1-0.4478,1-1
		C4,1010.8098,3.5523,1010.3622,3,1010.3622z"/>
	<path fill="#8D8D8D" d="M7,1010.3622c-0.5523,0-1,0.4476-1,1c0,0.5522,0.4477,1,1,1s1-0.4478,1-1
		C8,1010.8098,7.5523,1010.3622,7,1010.3622z"/>
	<path fill="#8D8D8D" d="M11,1010.3622c-0.5523,0-1,0.4476-1,1c0,0.5522,0.4477,1,1,1s1-0.4478,1-1
		C12,1010.8098,11.5523,1010.3622,11,1010.3622z"/>
	<path fill="#8D8D8D" d="M15,1010.3622c-0.5523,0-1,0.4476-1,1c0,0.5522,0.4477,1,1,1s1-0.4478,1-1
		C16,1010.8098,15.5523,1010.3622,15,1010.3622z"/>
	<path fill="#8D8D8D" d="M19,1010.3622c-0.5523,0-1,0.4476-1,1c0,0.5522,0.4477,1,1,1s1-0.4478,1-1
		C20,1010.8098,19.5523,1010.3622,19,1010.3622z"/>
	<path fill="#8D8D8D" d="M23,1010.3622c-0.5523,0-1,0.4476-1,1c0,0.5522,0.4477,1,1,1s1-0.4478,1-1
		C24,1010.8098,23.5523,1010.3622,23,1010.3622z"/>
	<path fill="#8D8D8D" d="M27,1010.3622c-0.5523,0-1,0.4476-1,1c0,0.5522,0.4477,1,1,1s1-0.4478,1-1
		C28,1010.8098,27.5523,1010.3622,27,1010.3622z"/>
	<path fill="#8D8D8D" d="M31,1010.3622c-0.5523,0-1,0.4476-1,1c0,0.5522,0.4477,1,1,1s1-0.4478,1-1
		C32,1010.8098,31.5523,1010.3622,31,1010.3622z"/>
	<path fill="#8D8D8D" d="M35,1010.3622c-0.5523,0-1,0.4476-1,1c0,0.5522,0.4477,1,1,1s1-0.4478,1-1
		C36,1010.8098,35.5523,1010.3622,35,1010.3622z"/>
	<path fill="#8D8D8D" d="M39,1010.3622c-0.5523,0-1,0.4476-1,1c0,0.5522,0.4477,1,1,1s1-0.4478,1-1
		C40,1010.8098,39.5523,1010.3622,39,1010.3622z"/>
	<path fill="#8D8D8D" fill-opacity="0.7295" d="M43,1010.3622c-0.5523,0-1,0.4476-1,1c0,0.5522,0.4477,1,1,1s1-0.4478,1-1
		C44,1010.8098,43.5523,1010.3622,43,1010.3622z"/>
	<path fill="#8D8D8D" d="M47,1010.3622c-0.5523,0-1,0.4476-1,1c0,0.5522,0.4477,1,1,1s1-0.4478,1-1
		C48,1010.8098,47.5523,1010.3622,47,1010.3622z"/>
	<path fill="#8D8D8D" d="M51,1010.3622c-0.5523,0-1,0.4476-1,1c0,0.5522,0.4477,1,1,1s1-0.4478,1-1
		C52,1010.8098,51.5523,1010.3622,51,1010.3622z"/>
	<path fill="#8D8D8D" d="M55,1010.3622c-0.5523,0-1,0.4476-1,1c0,0.5522,0.4477,1,1,1s1-0.4478,1-1
		C56,1010.8098,55.5523,1010.3622,55,1010.3622z"/>
	<path fill="#8D8D8D" d="M59,1010.3622c-0.5523,0-1,0.4476-1,1c0,0.5522,0.4477,1,1,1s1-0.4478,1-1
		C60,1010.8098,59.5523,1010.3622,59,1010.3622z"/>
	<path fill="#8D8D8D" d="M63,1010.3622c-0.5523,0-1,0.4476-1,1c0,0.5522,0.4477,1,1,1s1-0.4478,1-1
		C64,1010.8098,63.5523,1010.3622,63,1010.3622z"/>
	<path fill="#8D8D8D" d="M13,1011.8622c-0.5523,0-1,0.4477-1,1c0,0.5523,0.4477,1,1,1s1-0.4477,1-1
		C14,1012.3099,13.5523,1011.8622,13,1011.8622z"/>
	<path fill="#8D8D8D" d="M45,1011.8622c-0.5523,0-1,0.4477-1,1c0,0.5523,0.4477,1,1,1s1-0.4477,1-1
		C46,1012.3099,45.5523,1011.8622,45,1011.8622z"/>
	<path fill="#8D8D8D" d="M1,1012.3622c-0.5523,0-1,0.4476-1,1c0,0.5522,0.4477,1,1,1s1-0.4478,1-1
		C2,1012.8098,1.5523,1012.3622,1,1012.3622z"/>
	<path fill="#8D8D8D" d="M5,1012.3622c-0.5523,0-1,0.4476-1,1c0,0.5522,0.4477,1,1,1s1-0.4478,1-1
		C6,1012.8098,5.5523,1012.3622,5,1012.3622z"/>
	<path fill="#8D8D8D" d="M9,1012.3622c-0.5523,0-1,0.4476-1,1c0,0.5522,0.4477,1,1,1s1-0.4478,1-1
		C10,1012.8098,9.5523,1012.3622,9,1012.3622z"/>
	<path fill="#8D8D8D" d="M17,1012.3622c-0.5523,0-1,0.4476-1,1c0,0.5522,0.4477,1,1,1s1-0.4478,1-1
		C18,1012.8098,17.5523,1012.3622,17,1012.3622z"/>
	<path fill="#8D8D8D" d="M21,1012.3622c-0.5523,0-1,0.4476-1,1c0,0.5522,0.4477,1,1,1s1-0.4478,1-1
		C22,1012.8098,21.5523,1012.3622,21,1012.3622z"/>
	<path fill="#8D8D8D" d="M25,1012.3622c-0.5523,0-1,0.4476-1,1c0,0.5522,0.4477,1,1,1s1-0.4478,1-1
		C26,1012.8098,25.5523,1012.3622,25,1012.3622z"/>
	<path fill="#8D8D8D" d="M29,1012.3622c-0.5523,0-1,0.4476-1,1c0,0.5522,0.4477,1,1,1s1-0.4478,1-1
		C30,1012.8098,29.5523,1012.3622,29,1012.3622z"/>
	<path opacity="0.862" fill="#7D7D7D" enable-background="new    " d="M33,1012.3622c-0.5523,0-1,0.4476-1,1c0,0.5522,0.4477,1,1,1
		s1-0.4478,1-1C34,1012.8098,33.5523,1012.3622,33,1012.3622z"/>
	<path fill="#8D8D8D" d="M37,1012.3622c-0.5523,0-1,0.4476-1,1c0,0.5522,0.4477,1,1,1s1-0.4478,1-1
		C38,1012.8098,37.5523,1012.3622,37,1012.3622z"/>
	<path fill="#8D8D8D" d="M41,1012.3622c-0.5523,0-1,0.4476-1,1c0,0.5522,0.4477,1,1,1s1-0.4478,1-1
		C42,1012.8098,41.5523,1012.3622,41,1012.3622z"/>
	<path fill="#8D8D8D" d="M49,1012.3622c-0.5523,0-1,0.4476-1,1c0,0.5522,0.4477,1,1,1s1-0.4478,1-1
		C50,1012.8098,49.5523,1012.3622,49,1012.3622z"/>
	<path fill="#8D8D8D" d="M53,1012.3622c-0.5523,0-1,0.4476-1,1c0,0.5522,0.4477,1,1,1s1-0.4478,1-1
		C54,1012.8098,53.5523,1012.3622,53,1012.3622z"/>
	<path fill="#A3A3A3" d="M57,1012.3622c-0.5523,0-1,0.4476-1,1c0,0.5522,0.4477,1,1,1s1-0.4478,1-1
		C58,1012.8098,57.5523,1012.3622,57,1012.3622z"/>
	<path fill="#8D8D8D" d="M61,1012.3622c-0.5523,0-1,0.4476-1,1c0,0.5522,0.4477,1,1,1s1-0.4478,1-1
		C62,1012.8098,61.5523,1012.3622,61,1012.3622z"/>
	<path fill="#8D8D8D" d="M3,1014.3622c-0.5523,0-1,0.4476-1,1c0,0.5522,0.4477,1,1,1s1-0.4478,1-1
		C4,1014.8098,3.5523,1014.3622,3,1014.3622z"/>
	<path fill="#8D8D8D" d="M7,1014.3622c-0.5523,0-1,0.4476-1,1c0,0.5522,0.4477,1,1,1s1-0.4478,1-1
		C8,1014.8098,7.5523,1014.3622,7,1014.3622z"/>
	<path fill="#8D8D8D" d="M11,1014.3622c-0.5523,0-1,0.4476-1,1c0,0.5522,0.4477,1,1,1s1-0.4478,1-1
		C12,1014.8098,11.5523,1014.3622,11,1014.3622z"/>
	<path fill="#8D8D8D" fill-opacity="0.7295" d="M15,1014.3622c-0.5523,0-1,0.4476-1,1c0,0.5522,0.4477,1,1,1s1-0.4478,1-1
		C16,1014.8098,15.5523,1014.3622,15,1014.3622z"/>
	<path fill="#8D8D8D" d="M19,1014.3622c-0.5523,0-1,0.4476-1,1c0,0.5522,0.4477,1,1,1s1-0.4478,1-1
		C20,1014.8098,19.5523,1014.3622,19,1014.3622z"/>
	<path fill="#8D8D8D" d="M23,1014.3622c-0.5523,0-1,0.4476-1,1c0,0.5522,0.4477,1,1,1s1-0.4478,1-1
		C24,1014.8098,23.5523,1014.3622,23,1014.3622z"/>
	<path fill="#8D8D8D" d="M27,1014.3622c-0.5523,0-1,0.4476-1,1c0,0.5522,0.4477,1,1,1s1-0.4478,1-1
		C28,1014.8098,27.5523,1014.3622,27,1014.3622z"/>
	<path fill="#8D8D8D" d="M31,1014.3622c-0.5523,0-1,0.4476-1,1c0,0.5522,0.4477,1,1,1s1-0.4478,1-1
		C32,1014.8098,31.5523,1014.3622,31,1014.3622z"/>
	<path fill="#8D8D8D" d="M35,1014.3622c-0.5523,0-1,0.4476-1,1c0,0.5522,0.4477,1,1,1s1-0.4478,1-1
		C36,1014.8098,35.5523,1014.3622,35,1014.3622z"/>
	<path fill="#8D8D8D" d="M39,1014.3622c-0.5523,0-1,0.4476-1,1c0,0.5522,0.4477,1,1,1s1-0.4478,1-1
		C40,1014.8098,39.5523,1014.3622,39,1014.3622z"/>
	<path fill="#6F6F6F" fill-opacity="0.7112" d="M43,1014.3622c-0.5523,0-1,0.4476-1,1c0,0.5522,0.4477,1,1,1s1-0.4478,1-1
		C44,1014.8098,43.5523,1014.3622,43,1014.3622z"/>
	<path fill="#8D8D8D" d="M47,1014.3622c-0.5523,0-1,0.4476-1,1c0,0.5522,0.4477,1,1,1s1-0.4478,1-1
		C48,1014.8098,47.5523,1014.3622,47,1014.3622z"/>
	<path fill="#8D8D8D" d="M51,1014.3622c-0.5523,0-1,0.4476-1,1c0,0.5522,0.4477,1,1,1s1-0.4478,1-1
		C52,1014.8098,51.5523,1014.3622,51,1014.3622z"/>
	<path fill="#8D8D8D" d="M55,1014.3622c-0.5523,0-1,0.4476-1,1c0,0.5522,0.4477,1,1,1s1-0.4478,1-1
		C56,1014.8098,55.5523,1014.3622,55,1014.3622z"/>
	<path fill="#8D8D8D" d="M59,1014.3622c-0.5523,0-1,0.4476-1,1c0,0.5522,0.4477,1,1,1s1-0.4478,1-1
		C60,1014.8098,59.5523,1014.3622,59,1014.3622z"/>
	<path fill="#8D8D8D" d="M63,1014.3622c-0.5523,0-1,0.4476-1,1c0,0.5522,0.4477,1,1,1s1-0.4478,1-1
		C64,1014.8098,63.5523,1014.3622,63,1014.3622z"/>
	<path fill="#8D8D8D" d="M1,1016.3622c-0.5523,0-1,0.4476-1,1c0,0.5522,0.4477,1,1,1s1-0.4478,1-1
		C2,1016.8098,1.5523,1016.3622,1,1016.3622z"/>
	<path fill="#8D8D8D" d="M5,1016.3622c-0.5523,0-1,0.4476-1,1c0,0.5522,0.4477,1,1,1s1-0.4478,1-1
		C6,1016.8098,5.5523,1016.3622,5,1016.3622z"/>
	<path fill="#8D8D8D" d="M9,1016.3622c-0.5523,0-1,0.4476-1,1c0,0.5522,0.4477,1,1,1s1-0.4478,1-1
		C10,1016.8098,9.5523,1016.3622,9,1016.3622z"/>
	<path fill="#8D8D8D" d="M13,1016.3622c-0.5523,0-1,0.4476-1,1c0,0.5522,0.4477,1,1,1s1-0.4478,1-1
		C14,1016.8098,13.5523,1016.3622,13,1016.3622z"/>
	<path fill="#8D8D8D" d="M17,1016.3622c-0.5523,0-1,0.4476-1,1c0,0.5522,0.4477,1,1,1s1-0.4478,1-1
		C18,1016.8098,17.5523,1016.3622,17,1016.3622z"/>
	<path fill="#8D8D8D" d="M21,1016.3622c-0.5523,0-1,0.4476-1,1c0,0.5522,0.4477,1,1,1s1-0.4478,1-1
		C22,1016.8098,21.5523,1016.3622,21,1016.3622z"/>
	<path fill="#8D8D8D" d="M25,1016.3622c-0.5523,0-1,0.4476-1,1c0,0.5522,0.4477,1,1,1s1-0.4478,1-1
		C26,1016.8098,25.5523,1016.3622,25,1016.3622z"/>
	<path fill="#8D8D8D" d="M29,1016.3622c-0.5523,0-1,0.4476-1,1c0,0.5522,0.4477,1,1,1s1-0.4478,1-1
		C30,1016.8098,29.5523,1016.3622,29,1016.3622z"/>
	<path fill="#8D8D8D" d="M33,1016.3622c-0.5523,0-1,0.4476-1,1c0,0.5522,0.4477,1,1,1s1-0.4478,1-1
		C34,1016.8098,33.5523,1016.3622,33,1016.3622z"/>
	<path fill="#8D8D8D" d="M37,1016.3622c-0.5523,0-1,0.4476-1,1c0,0.5522,0.4477,1,1,1s1-0.4478,1-1
		C38,1016.8098,37.5523,1016.3622,37,1016.3622z"/>
	<path fill="#8D8D8D" d="M41,1016.3622c-0.5523,0-1,0.4476-1,1c0,0.5522,0.4477,1,1,1s1-0.4478,1-1
		C42,1016.8098,41.5523,1016.3622,41,1016.3622z"/>
	<path fill="#8D8D8D" d="M45,1016.3622c-0.5523,0-1,0.4476-1,1c0,0.5522,0.4477,1,1,1s1-0.4478,1-1
		C46,1016.8098,45.5523,1016.3622,45,1016.3622z"/>
	<path fill="#8D8D8D" d="M49,1016.3622c-0.5523,0-1,0.4476-1,1c0,0.5522,0.4477,1,1,1s1-0.4478,1-1
		C50,1016.8098,49.5523,1016.3622,49,1016.3622z"/>
	<path fill="#8D8D8D" d="M53,1016.3622c-0.5523,0-1,0.4476-1,1c0,0.5522,0.4477,1,1,1s1-0.4478,1-1
		C54,1016.8098,53.5523,1016.3622,53,1016.3622z"/>
	<path fill="#8D8D8D" d="M57,1016.3622c-0.5523,0-1,0.4476-1,1c0,0.5522,0.4477,1,1,1s1-0.4478,1-1
		C58,1016.8098,57.5523,1016.3622,57,1016.3622z"/>
	<path fill="#8D8D8D" d="M61,1016.3622c-0.5523,0-1,0.4476-1,1c0,0.5522,0.4477,1,1,1s1-0.4478,1-1
		C62,1016.8098,61.5523,1016.3622,61,1016.3622z"/>
	<path fill="#8D8D8D" d="M3,1018.3622c-0.5523,0-1,0.4476-1,1c0,0.5522,0.4477,1,1,1s1-0.4478,1-1
		C4,1018.8098,3.5523,1018.3622,3,1018.3622z"/>
	<path fill="#8D8D8D" d="M7,1018.3622c-0.5523,0-1,0.4476-1,1c0,0.5522,0.4477,1,1,1s1-0.4478,1-1
		C8,1018.8098,7.5523,1018.3622,7,1018.3622z"/>
	<path fill="#8D8D8D" d="M11,1018.3622c-0.5523,0-1,0.4476-1,1c0,0.5522,0.4477,1,1,1s1-0.4478,1-1
		C12,1018.8098,11.5523,1018.3622,11,1018.3622z"/>
	<path fill="#8D8D8D" d="M15,1018.3622c-0.5523,0-1,0.4476-1,1c0,0.5522,0.4477,1,1,1s1-0.4478,1-1
		C16,1018.8098,15.5523,1018.3622,15,1018.3622z"/>
	<path fill="#8D8D8D" d="M19,1018.3622c-0.5523,0-1,0.4476-1,1c0,0.5522,0.4477,1,1,1s1-0.4478,1-1
		C20,1018.8098,19.5523,1018.3622,19,1018.3622z"/>
	<path fill="#8D8D8D" d="M23,1018.3622c-0.5523,0-1,0.4476-1,1c0,0.5522,0.4477,1,1,1s1-0.4478,1-1
		C24,1018.8098,23.5523,1018.3622,23,1018.3622z"/>
	<path fill="#8D8D8D" d="M27,1018.3622c-0.5523,0-1,0.4476-1,1c0,0.5522,0.4477,1,1,1s1-0.4478,1-1
		C28,1018.8098,27.5523,1018.3622,27,1018.3622z"/>
	<path fill="#8D8D8D" d="M31,1018.3622c-0.5523,0-1,0.4476-1,1c0,0.5522,0.4477,1,1,1s1-0.4478,1-1
		C32,1018.8098,31.5523,1018.3622,31,1018.3622z"/>
	<path fill="#8D8D8D" d="M35,1018.3622c-0.5523,0-1,0.4476-1,1c0,0.5522,0.4477,1,1,1s1-0.4478,1-1
		C36,1018.8098,35.5523,1018.3622,35,1018.3622z"/>
	<path fill="#A3A3A3" d="M39,1018.3622c-0.5523,0-1,0.4476-1,1c0,0.5522,0.4477,1,1,1s1-0.4478,1-1
		C40,1018.8098,39.5523,1018.3622,39,1018.3622z"/>
	<path fill="#7D7D7D" d="M43,1018.3622c-0.5523,0-1,0.4476-1,1c0,0.5522,0.4477,1,1,1s1-0.4478,1-1
		C44,1018.8098,43.5523,1018.3622,43,1018.3622z"/>
	<path fill="#8D8D8D" d="M47,1018.3622c-0.5523,0-1,0.4476-1,1c0,0.5522,0.4477,1,1,1s1-0.4478,1-1
		C48,1018.8098,47.5523,1018.3622,47,1018.3622z"/>
	<path fill="#8D8D8D" d="M51,1018.3622c-0.5523,0-1,0.4476-1,1c0,0.5522,0.4477,1,1,1s1-0.4478,1-1
		C52,1018.8098,51.5523,1018.3622,51,1018.3622z"/>
	<path fill="#8D8D8D" d="M55,1018.3622c-0.5523,0-1,0.4476-1,1c0,0.5522,0.4477,1,1,1s1-0.4478,1-1
		C56,1018.8098,55.5523,1018.3622,55,1018.3622z"/>
	<path fill="#8D8D8D" d="M59,1018.3622c-0.5523,0-1,0.4476-1,1c0,0.5522,0.4477,1,1,1s1-0.4478,1-1
		C60,1018.8098,59.5523,1018.3622,59,1018.3622z"/>
	<path fill="#8D8D8D" d="M63,1018.3622c-0.5523,0-1,0.4476-1,1c0,0.5522,0.4477,1,1,1s1-0.4478,1-1
		C64,1018.8098,63.5523,1018.3622,63,1018.3622z"/>
	<path fill="#8D8D8D" d="M1,1020.3622c-0.5523,0-1,0.4477-1,1c0,0.5523,0.4477,1,1,1s1-0.4477,1-1
		C2,1020.8099,1.5523,1020.3622,1,1020.3622z"/>
	<path fill="#8D8D8D" d="M5,1020.3622c-0.5523,0-1,0.4477-1,1c0,0.5523,0.4477,1,1,1s1-0.4477,1-1
		C6,1020.8099,5.5523,1020.3622,5,1020.3622z"/>
	<path fill="#8D8D8D" d="M9,1020.3622c-0.5523,0-1,0.4477-1,1c0,0.5523,0.4477,1,1,1s1-0.4477,1-1
		C10,1020.8099,9.5523,1020.3622,9,1020.3622z"/>
	<path fill="#8D8D8D" d="M13,1020.3622c-0.5523,0-1,0.4477-1,1c0,0.5523,0.4477,1,1,1s1-0.4477,1-1
		C14,1020.8099,13.5523,1020.3622,13,1020.3622z"/>
	<path fill="#8D8D8D" d="M17,1020.3622c-0.5523,0-1,0.4477-1,1c0,0.5523,0.4477,1,1,1s1-0.4477,1-1
		C18,1020.8099,17.5523,1020.3622,17,1020.3622z"/>
	<path fill="#8D8D8D" d="M21,1020.3622c-0.5523,0-1,0.4477-1,1c0,0.5523,0.4477,1,1,1s1-0.4477,1-1
		C22,1020.8099,21.5523,1020.3622,21,1020.3622z"/>
	<path fill="#C4C4C4" d="M25,1020.3622c-0.5523,0-1,0.4477-1,1c0,0.5523,0.4477,1,1,1s1-0.4477,1-1
		C26,1020.8099,25.5523,1020.3622,25,1020.3622z"/>
	<path fill="#8D8D8D" d="M29,1020.3622c-0.5523,0-1,0.4477-1,1c0,0.5523,0.4477,1,1,1s1-0.4477,1-1
		C30,1020.8099,29.5523,1020.3622,29,1020.3622z"/>
	<path fill="#8D8D8D" d="M33,1020.3622c-0.5523,0-1,0.4477-1,1c0,0.5523,0.4477,1,1,1s1-0.4477,1-1
		C34,1020.8099,33.5523,1020.3622,33,1020.3622z"/>
	<path fill="#8D8D8D" d="M37,1020.3622c-0.5523,0-1,0.4477-1,1c0,0.5523,0.4477,1,1,1s1-0.4477,1-1
		C38,1020.8099,37.5523,1020.3622,37,1020.3622z"/>
	<path fill="#8D8D8D" d="M41,1020.3622c-0.5523,0-1,0.4477-1,1c0,0.5523,0.4477,1,1,1s1-0.4477,1-1
		C42,1020.8099,41.5523,1020.3622,41,1020.3622z"/>
	<path fill="#8D8D8D" d="M45,1020.3622c-0.5523,0-1,0.4477-1,1c0,0.5523,0.4477,1,1,1s1-0.4477,1-1
		C46,1020.8099,45.5523,1020.3622,45,1020.3622z"/>
	<path fill="#8D8D8D" d="M49,1020.3622c-0.5523,0-1,0.4477-1,1c0,0.5523,0.4477,1,1,1s1-0.4477,1-1
		C50,1020.8099,49.5523,1020.3622,49,1020.3622z"/>
	<path fill="#8D8D8D" d="M53,1020.3622c-0.5523,0-1,0.4477-1,1c0,0.5523,0.4477,1,1,1s1-0.4477,1-1
		C54,1020.8099,53.5523,1020.3622,53,1020.3622z"/>
	<path fill="#8D8D8D" d="M57,1020.3622c-0.5523,0-1,0.4477-1,1c0,0.5523,0.4477,1,1,1s1-0.4477,1-1
		C58,1020.8099,57.5523,1020.3622,57,1020.3622z"/>
	<path fill="#8D8D8D" d="M61,1020.3622c-0.5523,0-1,0.4477-1,1c0,0.5523,0.4477,1,1,1s1-0.4477,1-1
		C62,1020.8099,61.5523,1020.3622,61,1020.3622z"/>
	<path fill="#8D8D8D" d="M3,1022.3622c-0.5523,0-1,0.4477-1,1c0,0.5523,0.4477,1,1,1s1-0.4477,1-1
		C4,1022.8099,3.5523,1022.3622,3,1022.3622z"/>
	<path fill="#787878" d="M7,1022.3622c-0.5523,0-1,0.4477-1,1c0,0.5523,0.4477,1,1,1s1-0.4477,1-1
		C8,1022.8099,7.5523,1022.3622,7,1022.3622z"/>
	<path fill="#8D8D8D" d="M11,1022.3622c-0.5523,0-1,0.4477-1,1c0,0.5523,0.4477,1,1,1s1-0.4477,1-1
		C12,1022.8099,11.5523,1022.3622,11,1022.3622z"/>
	<path fill="#8D8D8D" d="M15,1022.3622c-0.5523,0-1,0.4477-1,1c0,0.5523,0.4477,1,1,1s1-0.4477,1-1
		C16,1022.8099,15.5523,1022.3622,15,1022.3622z"/>
	<path fill="#7D7D7D" d="M19,1022.3622c-0.5523,0-1,0.4477-1,1c0,0.5523,0.4477,1,1,1s1-0.4477,1-1
		C20,1022.8099,19.5523,1022.3622,19,1022.3622z"/>
	<path fill="#8D8D8D" d="M23,1022.3622c-0.5523,0-1,0.4477-1,1c0,0.5523,0.4477,1,1,1s1-0.4477,1-1
		C24,1022.8099,23.5523,1022.3622,23,1022.3622z"/>
	<path fill="#8D8D8D" d="M27.5,1022.3622c-0.5523,0-1,0.4477-1,1c0,0.5523,0.4477,1,1,1s1-0.4477,1-1
		C28.5,1022.8099,28.0523,1022.3622,27.5,1022.3622z"/>
	<path fill="#8D8D8D" d="M31,1022.3622c-0.5523,0-1,0.4477-1,1c0,0.5523,0.4477,1,1,1s1-0.4477,1-1
		C32,1022.8099,31.5523,1022.3622,31,1022.3622z"/>
	<path fill="#8D8D8D" d="M35,1022.3622c-0.5523,0-1,0.4477-1,1c0,0.5523,0.4477,1,1,1s1-0.4477,1-1
		C36,1022.8099,35.5523,1022.3622,35,1022.3622z"/>
	<path fill="#8D8D8D" d="M39,1022.3622c-0.5523,0-1,0.4477-1,1c0,0.5523,0.4477,1,1,1s1-0.4477,1-1
		C40,1022.8099,39.5523,1022.3622,39,1022.3622z"/>
	<path fill="#8D8D8D" d="M43,1022.3622c-0.5523,0-1,0.4477-1,1c0,0.5523,0.4477,1,1,1s1-0.4477,1-1
		C44,1022.8099,43.5523,1022.3622,43,1022.3622z"/>
	<path fill="#8D8D8D" d="M47,1022.3622c-0.5523,0-1,0.4477-1,1c0,0.5523,0.4477,1,1,1s1-0.4477,1-1
		C48,1022.8099,47.5523,1022.3622,47,1022.3622z"/>
	<path fill="#8D8D8D" d="M51,1022.3622c-0.5523,0-1,0.4477-1,1c0,0.5523,0.4477,1,1,1s1-0.4477,1-1
		C52,1022.8099,51.5523,1022.3622,51,1022.3622z"/>
	<path fill="#8D8D8D" d="M55,1022.3622c-0.5523,0-1,0.4477-1,1c0,0.5523,0.4477,1,1,1s1-0.4477,1-1
		C56,1022.8099,55.5523,1022.3622,55,1022.3622z"/>
	<path fill="#8D8D8D" d="M59.5,1022.3622c-0.5523,0-1,0.4477-1,1c0,0.5523,0.4477,1,1,1s1-0.4477,1-1
		C60.5,1022.8099,60.0523,1022.3622,59.5,1022.3622z"/>
	<path fill="#8D8D8D" d="M63,1022.3622c-0.5523,0-1,0.4477-1,1c0,0.5523,0.4477,1,1,1s1-0.4477,1-1
		C64,1022.8099,63.5523,1022.3622,63,1022.3622z"/>
	<path fill="#8D8D8D" d="M1,1024.3622c-0.5523,0-1,0.4478-1,1c0,0.5522,0.4477,1,1,1s1-0.4478,1-1
		C2,1024.8099,1.5523,1024.3622,1,1024.3622z"/>
	<path fill="#8D8D8D" d="M5,1024.3622c-0.5523,0-1,0.4478-1,1c0,0.5522,0.4477,1,1,1s1-0.4478,1-1
		C6,1024.8099,5.5523,1024.3622,5,1024.3622z"/>
	<path fill="#787878" d="M9,1024.3622c-0.5523,0-1,0.4478-1,1c0,0.5522,0.4477,1,1,1s1-0.4478,1-1
		C10,1024.8099,9.5523,1024.3622,9,1024.3622z"/>
	<path fill="#8D8D8D" d="M13,1024.3622c-0.5523,0-1,0.4478-1,1c0,0.5522,0.4477,1,1,1s1-0.4478,1-1
		C14,1024.8099,13.5523,1024.3622,13,1024.3622z"/>
	<path fill="#8D8D8D" d="M17,1024.3622c-0.5523,0-1,0.4478-1,1c0,0.5522,0.4477,1,1,1s1-0.4478,1-1
		C18,1024.8099,17.5523,1024.3622,17,1024.3622z"/>
	<path fill="#8D8D8D" d="M21,1024.3622c-0.5523,0-1,0.4478-1,1c0,0.5522,0.4477,1,1,1s1-0.4478,1-1
		C22,1024.8099,21.5523,1024.3622,21,1024.3622z"/>
	<path fill="#8D8D8D" fill-opacity="0.7295" d="M25,1024.3622c-0.5523,0-1,0.4478-1,1c0,0.5522,0.4477,1,1,1s1-0.4478,1-1
		C26,1024.8099,25.5523,1024.3622,25,1024.3622z"/>
	<path fill="#8D8D8D" d="M29,1024.3622c-0.5523,0-1,0.4478-1,1c0,0.5522,0.4477,1,1,1s1-0.4478,1-1
		C30,1024.8099,29.5523,1024.3622,29,1024.3622z"/>
	<path fill="#8D8D8D" d="M33,1024.3622c-0.5523,0-1,0.4478-1,1c0,0.5522,0.4477,1,1,1s1-0.4478,1-1
		C34,1024.8099,33.5523,1024.3622,33,1024.3622z"/>
	<path fill="#8D8D8D" d="M37,1024.3622c-0.5523,0-1,0.4478-1,1c0,0.5522,0.4477,1,1,1s1-0.4478,1-1
		C38,1024.8099,37.5523,1024.3622,37,1024.3622z"/>
	<path fill="#8D8D8D" d="M41,1024.3622c-0.5523,0-1,0.4478-1,1c0,0.5522,0.4477,1,1,1s1-0.4478,1-1
		C42,1024.8099,41.5523,1024.3622,41,1024.3622z"/>
	<path fill="#8D8D8D" d="M45,1024.3622c-0.5523,0-1,0.4478-1,1c0,0.5522,0.4477,1,1,1s1-0.4478,1-1
		C46,1024.8099,45.5523,1024.3622,45,1024.3622z"/>
	<path fill="#8D8D8D" d="M49,1024.3622c-0.5523,0-1,0.4478-1,1c0,0.5522,0.4477,1,1,1s1-0.4478,1-1
		C50,1024.8099,49.5523,1024.3622,49,1024.3622z"/>
	<path fill="#8D8D8D" d="M53,1024.3622c-0.5523,0-1,0.4478-1,1c0,0.5522,0.4477,1,1,1s1-0.4478,1-1
		C54,1024.8099,53.5523,1024.3622,53,1024.3622z"/>
	<path fill="#8D8D8D" d="M57,1024.3622c-0.5523,0-1,0.4478-1,1c0,0.5522,0.4477,1,1,1s1-0.4478,1-1
		C58,1024.8099,57.5523,1024.3622,57,1024.3622z"/>
	<path fill="#8D8D8D" d="M61,1024.3622c-0.5523,0-1,0.4478-1,1c0,0.5522,0.4477,1,1,1s1-0.4478,1-1
		C62,1024.8099,61.5523,1024.3622,61,1024.3622z"/>
	<path fill="#8D8D8D" d="M3,1026.3622c-0.5523,0-1,0.4476-1,1c0,0.5522,0.4477,1,1,1s1-0.4478,1-1
		C4,1026.8098,3.5523,1026.3622,3,1026.3622z"/>
	<path fill="#8D8D8D" d="M7,1026.3622c-0.5523,0-1,0.4476-1,1c0,0.5522,0.4477,1,1,1s1-0.4478,1-1
		C8,1026.8098,7.5523,1026.3622,7,1026.3622z"/>
	<path fill="#8D8D8D" d="M11,1026.3622c-0.5523,0-1,0.4476-1,1c0,0.5522,0.4477,1,1,1s1-0.4478,1-1
		C12,1026.8098,11.5523,1026.3622,11,1026.3622z"/>
	<path fill="#8D8D8D" d="M15,1026.3622c-0.5523,0-1,0.4476-1,1c0,0.5522,0.4477,1,1,1s1-0.4478,1-1
		C16,1026.8098,15.5523,1026.3622,15,1026.3622z"/>
	<path fill="#8D8D8D" d="M19,1026.3622c-0.5523,0-1,0.4476-1,1c0,0.5522,0.4477,1,1,1s1-0.4478,1-1
		C20,1026.8098,19.5523,1026.3622,19,1026.3622z"/>
	<path fill="#8D8D8D" d="M23,1026.3622c-0.5523,0-1,0.4476-1,1c0,0.5522,0.4477,1,1,1s1-0.4478,1-1
		C24,1026.8098,23.5523,1026.3622,23,1026.3622z"/>
	<path fill="#8D8D8D" d="M27,1026.3622c-0.5523,0-1,0.4476-1,1c0,0.5522,0.4477,1,1,1s1-0.4478,1-1
		C28,1026.8098,27.5523,1026.3622,27,1026.3622z"/>
	<path fill="#8D8D8D" d="M31,1026.3622c-0.5523,0-1,0.4476-1,1c0,0.5522,0.4477,1,1,1s1-0.4478,1-1
		C32,1026.8098,31.5523,1026.3622,31,1026.3622z"/>
	<path fill="#8D8D8D" d="M35,1026.3622c-0.5523,0-1,0.4476-1,1c0,0.5522,0.4477,1,1,1s1-0.4478,1-1
		C36,1026.8098,35.5523,1026.3622,35,1026.3622z"/>
	<path fill="#8D8D8D" d="M39,1026.3622c-0.5523,0-1,0.4476-1,1c0,0.5522,0.4477,1,1,1s1-0.4478,1-1
		C40,1026.8098,39.5523,1026.3622,39,1026.3622z"/>
	<path fill="#8D8D8D" d="M43,1026.3622c-0.5523,0-1,0.4476-1,1c0,0.5522,0.4477,1,1,1s1-0.4478,1-1
		C44,1026.8098,43.5523,1026.3622,43,1026.3622z"/>
	<path fill="#8D8D8D" d="M47,1026.3622c-0.5523,0-1,0.4476-1,1c0,0.5522,0.4477,1,1,1s1-0.4478,1-1
		C48,1026.8098,47.5523,1026.3622,47,1026.3622z"/>
	<path fill="#8D8D8D" d="M51,1026.3622c-0.5523,0-1,0.4476-1,1c0,0.5522,0.4477,1,1,1s1-0.4478,1-1
		C52,1026.8098,51.5523,1026.3622,51,1026.3622z"/>
	<path fill="#8D8D8D" d="M55,1026.3622c-0.5523,0-1,0.4476-1,1c0,0.5522,0.4477,1,1,1s1-0.4478,1-1
		C56,1026.8098,55.5523,1026.3622,55,1026.3622z"/>
	<path fill="#8D8D8D" d="M59,1026.3622c-0.5523,0-1,0.4476-1,1c0,0.5522,0.4477,1,1,1s1-0.4478,1-1
		C60,1026.8098,59.5523,1026.3622,59,1026.3622z"/>
	<path fill="#8D8D8D" d="M63,1026.3622c-0.5523,0-1,0.4476-1,1c0,0.5522,0.4477,1,1,1s1-0.4478,1-1
		C64,1026.8098,63.5523,1026.3622,63,1026.3622z"/>
	<path fill="#8D8D8D" d="M1,1028.3622c-0.5523,0-1,0.4476-1,1c0,0.5522,0.4477,1,1,1s1-0.4478,1-1
		C2,1028.8098,1.5523,1028.3622,1,1028.3622z"/>
	<path fill="#8D8D8D" d="M5.5,1028.3622c-0.5523,0-1,0.4476-1,1c0,0.5522,0.4477,1,1,1s1-0.4478,1-1
		C6.5,1028.8098,6.0523,1028.3622,5.5,1028.3622z"/>
	<path fill="#8D8D8D" d="M9,1028.3622c-0.5523,0-1,0.4476-1,1c0,0.5522,0.4477,1,1,1s1-0.4478,1-1
		C10,1028.8098,9.5523,1028.3622,9,1028.3622z"/>
	<path fill="#8D8D8D" d="M13,1028.3622c-0.5523,0-1,0.4476-1,1c0,0.5522,0.4477,1,1,1s1-0.4478,1-1
		C14,1028.8098,13.5523,1028.3622,13,1028.3622z"/>
	<path fill="#8D8D8D" d="M17,1028.3622c-0.5523,0-1,0.4476-1,1c0,0.5522,0.4477,1,1,1s1-0.4478,1-1
		C18,1028.8098,17.5523,1028.3622,17,1028.3622z"/>
	<path fill="#8D8D8D" d="M21,1028.3622c-0.5523,0-1,0.4476-1,1c0,0.5522,0.4477,1,1,1s1-0.4478,1-1
		C22,1028.8098,21.5523,1028.3622,21,1028.3622z"/>
	<path fill="#8D8D8D" d="M25,1028.3622c-0.5523,0-1,0.4476-1,1c0,0.5522,0.4477,1,1,1s1-0.4478,1-1
		C26,1028.8098,25.5523,1028.3622,25,1028.3622z"/>
	<path fill="#8D8D8D" d="M29,1028.3622c-0.5523,0-1,0.4476-1,1c0,0.5522,0.4477,1,1,1s1-0.4478,1-1
		C30,1028.8098,29.5523,1028.3622,29,1028.3622z"/>
	<path fill="#6F6F6F" fill-opacity="0.7112" d="M33,1028.3622c-0.5523,0-1,0.4476-1,1c0,0.5522,0.4477,1,1,1s1-0.4478,1-1
		C34,1028.8098,33.5523,1028.3622,33,1028.3622z"/>
	<path fill="#8D8D8D" d="M37.5,1028.3622c-0.5523,0-1,0.4476-1,1c0,0.5522,0.4477,1,1,1s1-0.4478,1-1
		C38.5,1028.8098,38.0523,1028.3622,37.5,1028.3622z"/>
	<path fill="#8D8D8D" d="M41,1028.3622c-0.5523,0-1,0.4476-1,1c0,0.5522,0.4477,1,1,1s1-0.4478,1-1
		C42,1028.8098,41.5523,1028.3622,41,1028.3622z"/>
	<path fill="#8D8D8D" d="M45,1028.3622c-0.5523,0-1,0.4476-1,1c0,0.5522,0.4477,1,1,1s1-0.4478,1-1
		C46,1028.8098,45.5523,1028.3622,45,1028.3622z"/>
	<path fill="#8D8D8D" d="M49,1028.3622c-0.5523,0-1,0.4476-1,1c0,0.5522,0.4477,1,1,1s1-0.4478,1-1
		C50,1028.8098,49.5523,1028.3622,49,1028.3622z"/>
	<path fill="#8D8D8D" d="M53,1028.3622c-0.5523,0-1,0.4476-1,1c0,0.5522,0.4477,1,1,1s1-0.4478,1-1
		C54,1028.8098,53.5523,1028.3622,53,1028.3622z"/>
	<path fill="#8D8D8D" d="M57,1028.3622c-0.5523,0-1,0.4476-1,1c0,0.5522,0.4477,1,1,1s1-0.4478,1-1
		C58,1028.8098,57.5523,1028.3622,57,1028.3622z"/>
	<path fill="#8D8D8D" d="M61,1028.3622c-0.5523,0-1,0.4476-1,1c0,0.5522,0.4477,1,1,1s1-0.4478,1-1
		C62,1028.8098,61.5523,1028.3622,61,1028.3622z"/>
	<path fill="#8D8D8D" d="M3,1030.3622c-0.5523,0-1,0.4476-1,1c0,0.5522,0.4477,1,1,1s1-0.4478,1-1
		C4,1030.8098,3.5523,1030.3622,3,1030.3622z"/>
	<path fill="#8D8D8D" d="M7,1030.3622c-0.5523,0-1,0.4476-1,1c0,0.5522,0.4477,1,1,1s1-0.4478,1-1
		C8,1030.8098,7.5523,1030.3622,7,1030.3622z"/>
	<path fill="#8D8D8D" d="M11,1030.3622c-0.5523,0-1,0.4476-1,1c0,0.5522,0.4477,1,1,1s1-0.4478,1-1
		C12,1030.8098,11.5523,1030.3622,11,1030.3622z"/>
	<path fill="#8D8D8D" d="M15,1030.3622c-0.5523,0-1,0.4476-1,1c0,0.5522,0.4477,1,1,1s1-0.4478,1-1
		C16,1030.8098,15.5523,1030.3622,15,1030.3622z"/>
	<path fill="#8D8D8D" d="M19,1030.3622c-0.5523,0-1,0.4476-1,1c0,0.5522,0.4477,1,1,1s1-0.4478,1-1
		C20,1030.8098,19.5523,1030.3622,19,1030.3622z"/>
	<path fill="#8D8D8D" d="M23,1030.3622c-0.5523,0-1,0.4476-1,1c0,0.5522,0.4477,1,1,1s1-0.4478,1-1
		C24,1030.8098,23.5523,1030.3622,23,1030.3622z"/>
	<path fill="#8D8D8D" d="M27,1030.3622c-0.5523,0-1,0.4476-1,1c0,0.5522,0.4477,1,1,1s1-0.4478,1-1
		C28,1030.8098,27.5523,1030.3622,27,1030.3622z"/>
	<path fill="#8D8D8D" d="M31,1030.3622c-0.5523,0-1,0.4476-1,1c0,0.5522,0.4477,1,1,1s1-0.4478,1-1
		C32,1030.8098,31.5523,1030.3622,31,1030.3622z"/>
	<path fill="#8D8D8D" d="M35,1030.3622c-0.5523,0-1,0.4476-1,1c0,0.5522,0.4477,1,1,1s1-0.4478,1-1
		C36,1030.8098,35.5523,1030.3622,35,1030.3622z"/>
	<path fill="#8D8D8D" d="M39,1030.3622c-0.5523,0-1,0.4476-1,1c0,0.5522,0.4477,1,1,1s1-0.4478,1-1
		C40,1030.8098,39.5523,1030.3622,39,1030.3622z"/>
	<path fill="#8D8D8D" d="M43,1030.3622c-0.5523,0-1,0.4476-1,1c0,0.5522,0.4477,1,1,1s1-0.4478,1-1
		C44,1030.8098,43.5523,1030.3622,43,1030.3622z"/>
	<path fill="#8D8D8D" d="M47,1030.3622c-0.5523,0-1,0.4476-1,1c0,0.5522,0.4477,1,1,1s1-0.4478,1-1
		C48,1030.8098,47.5523,1030.3622,47,1030.3622z"/>
	<path fill="#8D8D8D" d="M51,1030.3622c-0.5523,0-1,0.4476-1,1c0,0.5522,0.4477,1,1,1s1-0.4478,1-1
		C52,1030.8098,51.5523,1030.3622,51,1030.3622z"/>
	<path fill="#8E8E8E" d="M55,1030.3622c-0.5523,0-1,0.4476-1,1c0,0.5522,0.4477,1,1,1s1-0.4478,1-1
		C56,1030.8098,55.5523,1030.3622,55,1030.3622z"/>
	<path fill="#8D8D8D" d="M59,1030.3622c-0.5523,0-1,0.4476-1,1c0,0.5522,0.4477,1,1,1s1-0.4478,1-1
		C60,1030.8098,59.5523,1030.3622,59,1030.3622z"/>
	<path fill="#8D8D8D" d="M63,1030.3622c-0.5523,0-1,0.4476-1,1c0,0.5522,0.4477,1,1,1s1-0.4478,1-1
		C64,1030.8098,63.5523,1030.3622,63,1030.3622z"/>
	<path fill="#8D8D8D" d="M1,1032.3622c-0.5523,0-1,0.4476-1,1c0,0.5522,0.4477,1,1,1s1-0.4478,1-1
		C2,1032.8098,1.5523,1032.3622,1,1032.3622z"/>
	<path fill="#8D8D8D" d="M5,1032.3622c-0.5523,0-1,0.4476-1,1c0,0.5522,0.4477,1,1,1s1-0.4478,1-1
		C6,1032.8098,5.5523,1032.3622,5,1032.3622z"/>
	<path opacity="0.862" fill="#4D4D4D" enable-background="new    " d="M9,1032.3622c-0.5523,0-1,0.4476-1,1c0,0.5522,0.4477,1,1,1
		s1-0.4478,1-1C10,1032.8098,9.5523,1032.3622,9,1032.3622z"/>
	<path fill="#8D8D8D" d="M13,1032.3622c-0.5523,0-1,0.4476-1,1c0,0.5522,0.4477,1,1,1s1-0.4478,1-1
		C14,1032.8098,13.5523,1032.3622,13,1032.3622z"/>
	<path fill="#8D8D8D" d="M17,1032.3622c-0.5523,0-1,0.4476-1,1c0,0.5522,0.4477,1,1,1s1-0.4478,1-1
		C18,1032.8098,17.5523,1032.3622,17,1032.3622z"/>
	<path fill="#8D8D8D" d="M21,1032.3622c-0.5523,0-1,0.4476-1,1c0,0.5522,0.4477,1,1,1s1-0.4478,1-1
		C22,1032.8098,21.5523,1032.3622,21,1032.3622z"/>
	<path fill="#8D8D8D" d="M25,1032.3622c-0.5523,0-1,0.4476-1,1c0,0.5522,0.4477,1,1,1s1-0.4478,1-1
		C26,1032.8098,25.5523,1032.3622,25,1032.3622z"/>
	<path fill="#8D8D8D" d="M29,1032.3622c-0.5523,0-1,0.4476-1,1c0,0.5522,0.4477,1,1,1s1-0.4478,1-1
		C30,1032.8098,29.5523,1032.3622,29,1032.3622z"/>
	<path fill="#8D8D8D" d="M33,1032.3622c-0.5523,0-1,0.4476-1,1c0,0.5522,0.4477,1,1,1s1-0.4478,1-1
		C34,1032.8098,33.5523,1032.3622,33,1032.3622z"/>
	<path fill="#8D8D8D" d="M37,1032.3622c-0.5523,0-1,0.4476-1,1c0,0.5522,0.4477,1,1,1s1-0.4478,1-1
		C38,1032.8098,37.5523,1032.3622,37,1032.3622z"/>
	<path fill="#8D8D8D" d="M41,1032.3622c-0.5523,0-1,0.4476-1,1c0,0.5522,0.4477,1,1,1s1-0.4478,1-1
		C42,1032.8098,41.5523,1032.3622,41,1032.3622z"/>
	<path fill="#8D8D8D" d="M45,1032.3622c-0.5523,0-1,0.4476-1,1c0,0.5522,0.4477,1,1,1s1-0.4478,1-1
		C46,1032.8098,45.5523,1032.3622,45,1032.3622z"/>
	<path fill="#8D8D8D" d="M49,1032.3622c-0.5523,0-1,0.4476-1,1c0,0.5522,0.4477,1,1,1s1-0.4478,1-1
		C50,1032.8098,49.5523,1032.3622,49,1032.3622z"/>
	<path fill="#8D8D8D" d="M53,1032.3622c-0.5523,0-1,0.4476-1,1c0,0.5522,0.4477,1,1,1s1-0.4478,1-1
		C54,1032.8098,53.5523,1032.3622,53,1032.3622z"/>
	<path fill="#8D8D8D" d="M57,1032.3622c-0.5523,0-1,0.4476-1,1c0,0.5522,0.4477,1,1,1s1-0.4478,1-1
		C58,1032.8098,57.5523,1032.3622,57,1032.3622z"/>
	<path fill="#8D8D8D" d="M61,1032.3622c-0.5523,0-1,0.4476-1,1c0,0.5522,0.4477,1,1,1s1-0.4478,1-1
		C62,1032.8098,61.5523,1032.3622,61,1032.3622z"/>
	<path fill="#8D8D8D" d="M3,1034.3622c-0.5523,0-1,0.4476-1,1c0,0.5522,0.4477,1,1,1s1-0.4478,1-1
		C4,1034.8098,3.5523,1034.3622,3,1034.3622z"/>
	<path fill="#8D8D8D" d="M7,1034.3622c-0.5523,0-1,0.4476-1,1c0,0.5522,0.4477,1,1,1s1-0.4478,1-1
		C8,1034.8098,7.5523,1034.3622,7,1034.3622z"/>
	<path fill="#8D8D8D" d="M11,1034.3622c-0.5523,0-1,0.4476-1,1c0,0.5522,0.4477,1,1,1s1-0.4478,1-1
		C12,1034.8098,11.5523,1034.3622,11,1034.3622z"/>
	<path fill="#8D8D8D" d="M15,1034.3622c-0.5523,0-1,0.4476-1,1c0,0.5522,0.4477,1,1,1s1-0.4478,1-1
		C16,1034.8098,15.5523,1034.3622,15,1034.3622z"/>
	<path fill="#8D8D8D" d="M19,1034.3622c-0.5523,0-1,0.4478-1,1c0,0.5522,0.4477,1,1,1s1-0.4478,1-1
		C20,1034.8099,19.5523,1034.3622,19,1034.3622z"/>
	<path fill="#8D8D8D" d="M23,1034.3622c-0.5523,0-1,0.4476-1,1c0,0.5522,0.4477,1,1,1s1-0.4478,1-1
		C24,1034.8098,23.5523,1034.3622,23,1034.3622z"/>
	<path fill="#8D8D8D" d="M27,1034.3622c-0.5523,0-1,0.4476-1,1c0,0.5522,0.4477,1,1,1s1-0.4478,1-1
		C28,1034.8098,27.5523,1034.3622,27,1034.3622z"/>
	<path fill="#8D8D8D" d="M31,1034.3622c-0.5523,0-1,0.4476-1,1c0,0.5522,0.4477,1,1,1s1-0.4478,1-1
		C32,1034.8098,31.5523,1034.3622,31,1034.3622z"/>
	<path fill="#8D8D8D" d="M35,1034.3622c-0.5523,0-1,0.4476-1,1c0,0.5522,0.4477,1,1,1s1-0.4478,1-1
		C36,1034.8098,35.5523,1034.3622,35,1034.3622z"/>
	<path fill="#8D8D8D" d="M39,1034.3622c-0.5523,0-1,0.4476-1,1c0,0.5522,0.4477,1,1,1s1-0.4478,1-1
		C40,1034.8098,39.5523,1034.3622,39,1034.3622z"/>
	<path fill="#8D8D8D" d="M43,1034.3622c-0.5523,0-1,0.4476-1,1c0,0.5522,0.4477,1,1,1s1-0.4478,1-1
		C44,1034.8098,43.5523,1034.3622,43,1034.3622z"/>
	<path fill="#8D8D8D" d="M47,1034.3622c-0.5523,0-1,0.4476-1,1c0,0.5522,0.4477,1,1,1s1-0.4478,1-1
		C48,1034.8098,47.5523,1034.3622,47,1034.3622z"/>
	<path fill="#8D8D8D" d="M51,1034.3622c-0.5523,0-1,0.4478-1,1c0,0.5522,0.4477,1,1,1s1-0.4478,1-1
		C52,1034.8099,51.5523,1034.3622,51,1034.3622z"/>
	<path fill="#8D8D8D" d="M55,1034.3622c-0.5523,0-1,0.4476-1,1c0,0.5522,0.4477,1,1,1s1-0.4478,1-1
		C56,1034.8098,55.5523,1034.3622,55,1034.3622z"/>
	<path fill="#8D8D8D" d="M59,1034.3622c-0.5523,0-1,0.4476-1,1c0,0.5522,0.4477,1,1,1s1-0.4478,1-1
		C60,1034.8098,59.5523,1034.3622,59,1034.3622z"/>
	<path fill="#8D8D8D" d="M63,1034.3622c-0.5523,0-1,0.4476-1,1c0,0.5522,0.4477,1,1,1s1-0.4478,1-1
		C64,1034.8098,63.5523,1034.3622,63,1034.3622z"/>
	<path fill="#8D8D8D" d="M17,1035.8544c-0.5523,0-1,0.4478-1,1c0,0.5522,0.4477,1,1,1s1-0.4478,1-1
		C18,1036.3021,17.5523,1035.8544,17,1035.8544z"/>
	<path fill="#8D8D8D" d="M49,1035.8544c-0.5523,0-1,0.4478-1,1c0,0.5522,0.4477,1,1,1s1-0.4478,1-1
		C50,1036.3021,49.5523,1035.8544,49,1035.8544z"/>
	<path fill="#8D8D8D" d="M1,1036.3622c-0.5523,0-1,0.4476-1,1c0,0.5522,0.4477,1,1,1s1-0.4478,1-1
		C2,1036.8098,1.5523,1036.3622,1,1036.3622z"/>
	<path fill="#8D8D8D" d="M5,1036.3622c-0.5523,0-1,0.4476-1,1c0,0.5522,0.4477,1,1,1s1-0.4478,1-1
		C6,1036.8098,5.5523,1036.3622,5,1036.3622z"/>
	<path fill="#8D8D8D" d="M9,1036.3622c-0.5523,0-1,0.4476-1,1c0,0.5522,0.4477,1,1,1s1-0.4478,1-1
		C10,1036.8098,9.5523,1036.3622,9,1036.3622z"/>
	<path fill="#8D8D8D" d="M13,1036.3622c-0.5523,0-1,0.4476-1,1c0,0.5522,0.4477,1,1,1s1-0.4478,1-1
		C14,1036.8098,13.5523,1036.3622,13,1036.3622z"/>
	<path fill="#8D8D8D" d="M21,1036.3622c-0.5523,0-1,0.4476-1,1c0,0.5522,0.4477,1,1,1s1-0.4478,1-1
		C22,1036.8098,21.5523,1036.3622,21,1036.3622z"/>
	<path fill="#7D7D7D" d="M25,1036.3622c-0.5523,0-1,0.4476-1,1c0,0.5522,0.4477,1,1,1s1-0.4478,1-1
		C26,1036.8098,25.5523,1036.3622,25,1036.3622z"/>
	<path fill="#8D8D8D" d="M29,1036.3622c-0.5523,0-1,0.4476-1,1c0,0.5522,0.4477,1,1,1s1-0.4478,1-1
		C30,1036.8098,29.5523,1036.3622,29,1036.3622z"/>
	<path fill="#8D8D8D" d="M33,1036.3622c-0.5523,0-1,0.4476-1,1c0,0.5522,0.4477,1,1,1s1-0.4478,1-1
		C34,1036.8098,33.5523,1036.3622,33,1036.3622z"/>
	<path fill="#8D8D8D" d="M37,1036.3622c-0.5523,0-1,0.4476-1,1c0,0.5522,0.4477,1,1,1s1-0.4478,1-1
		C38,1036.8098,37.5523,1036.3622,37,1036.3622z"/>
	<path fill="#8D8D8D" d="M41,1036.3622c-0.5523,0-1,0.4476-1,1c0,0.5522,0.4477,1,1,1s1-0.4478,1-1
		C42,1036.8098,41.5523,1036.3622,41,1036.3622z"/>
	<path fill="#8D8D8D" d="M45,1036.3622c-0.5523,0-1,0.4476-1,1c0,0.5522,0.4477,1,1,1s1-0.4478,1-1
		C46,1036.8098,45.5523,1036.3622,45,1036.3622z"/>
	<path fill="#8D8D8D" d="M53,1036.3622c-0.5523,0-1,0.4476-1,1c0,0.5522,0.4477,1,1,1s1-0.4478,1-1
		C54,1036.8098,53.5523,1036.3622,53,1036.3622z"/>
	<path fill="#8D8D8D" d="M57,1036.3622c-0.5523,0-1,0.4476-1,1c0,0.5522,0.4477,1,1,1s1-0.4478,1-1
		C58,1036.8098,57.5523,1036.3622,57,1036.3622z"/>
	<path fill="#A3A3A3" d="M61,1036.3622c-0.5523,0-1,0.4476-1,1c0,0.5522,0.4477,1,1,1s1-0.4478,1-1
		C62,1036.8098,61.5523,1036.3622,61,1036.3622z"/>
	<path fill="#8D8D8D" d="M3,1038.3622c-0.5523,0-1,0.4476-1,1c0,0.5522,0.4477,1,1,1s1-0.4478,1-1
		C4,1038.8098,3.5523,1038.3622,3,1038.3622z"/>
	<path fill="#8D8D8D" d="M7,1038.3622c-0.5523,0-1,0.4476-1,1c0,0.5522,0.4477,1,1,1s1-0.4478,1-1
		C8,1038.8098,7.5523,1038.3622,7,1038.3622z"/>
	<path fill="#8D8D8D" d="M11,1038.3622c-0.5523,0-1,0.4476-1,1c0,0.5522,0.4477,1,1,1s1-0.4478,1-1
		C12,1038.8098,11.5523,1038.3622,11,1038.3622z"/>
	<path fill="#8D8D8D" d="M15,1038.3622c-0.5523,0-1,0.4476-1,1c0,0.5522,0.4477,1,1,1s1-0.4478,1-1
		C16,1038.8098,15.5523,1038.3622,15,1038.3622z"/>
	<path fill="#8D8D8D" d="M19,1038.3622c-0.5523,0-1,0.4476-1,1c0,0.5522,0.4477,1,1,1s1-0.4478,1-1
		C20,1038.8098,19.5523,1038.3622,19,1038.3622z"/>
	<path fill="#8D8D8D" d="M23,1038.3622c-0.5523,0-1,0.4476-1,1c0,0.5522,0.4477,1,1,1s1-0.4478,1-1
		C24,1038.8098,23.5523,1038.3622,23,1038.3622z"/>
	<path fill="#8D8D8D" d="M27,1038.3622c-0.5523,0-1,0.4476-1,1c0,0.5522,0.4477,1,1,1s1-0.4478,1-1
		C28,1038.8098,27.5523,1038.3622,27,1038.3622z"/>
	<path fill="#8D8D8D" d="M31,1038.3622c-0.5523,0-1,0.4476-1,1c0,0.5522,0.4477,1,1,1s1-0.4478,1-1
		C32,1038.8098,31.5523,1038.3622,31,1038.3622z"/>
	<path fill="#8D8D8D" d="M35,1038.3622c-0.5523,0-1,0.4476-1,1c0,0.5522,0.4477,1,1,1s1-0.4478,1-1
		C36,1038.8098,35.5523,1038.3622,35,1038.3622z"/>
	<path fill="#8D8D8D" d="M39,1038.3622c-0.5523,0-1,0.4476-1,1c0,0.5522,0.4477,1,1,1s1-0.4478,1-1
		C40,1038.8098,39.5523,1038.3622,39,1038.3622z"/>
	<path fill="#8D8D8D" d="M43,1038.3622c-0.5523,0-1,0.4476-1,1c0,0.5522,0.4477,1,1,1s1-0.4478,1-1
		C44,1038.8098,43.5523,1038.3622,43,1038.3622z"/>
	<path fill="#8D8D8D" d="M47,1038.3622c-0.5523,0-1,0.4476-1,1c0,0.5522,0.4477,1,1,1s1-0.4478,1-1
		C48,1038.8098,47.5523,1038.3622,47,1038.3622z"/>
	<path fill="#787878" d="M51,1038.3622c-0.5523,0-1,0.4476-1,1c0,0.5522,0.4477,1,1,1s1-0.4478,1-1
		C52,1038.8098,51.5523,1038.3622,51,1038.3622z"/>
	<path fill="#8D8D8D" d="M55,1038.3622c-0.5523,0-1,0.4476-1,1c0,0.5522,0.4477,1,1,1s1-0.4478,1-1
		C56,1038.8098,55.5523,1038.3622,55,1038.3622z"/>
	<path fill="#8D8D8D" d="M59,1038.3622c-0.5523,0-1,0.4476-1,1c0,0.5522,0.4477,1,1,1s1-0.4478,1-1
		C60,1038.8098,59.5523,1038.3622,59,1038.3622z"/>
	<path fill="#8E8E8E" d="M63,1038.3622c-0.5523,0-1,0.4476-1,1c0,0.5522,0.4477,1,1,1s1-0.4478,1-1
		C64,1038.8098,63.5523,1038.3622,63,1038.3622z"/>
	<path fill="#8D8D8D" d="M1,1040.3622c-0.5523,0-1,0.4476-1,1c0,0.5522,0.4477,1,1,1s1-0.4478,1-1
		C2,1040.8098,1.5523,1040.3622,1,1040.3622z"/>
	<path fill="#8D8D8D" d="M5,1040.3622c-0.5523,0-1,0.4476-1,1c0,0.5522,0.4477,1,1,1s1-0.4478,1-1
		C6,1040.8098,5.5523,1040.3622,5,1040.3622z"/>
	<path fill="#8D8D8D" d="M9,1040.3622c-0.5523,0-1,0.4476-1,1c0,0.5522,0.4477,1,1,1s1-0.4478,1-1
		C10,1040.8098,9.5523,1040.3622,9,1040.3622z"/>
	<path fill="#8D8D8D" d="M13,1040.3622c-0.5523,0-1,0.4476-1,1c0,0.5522,0.4477,1,1,1s1-0.4478,1-1
		C14,1040.8098,13.5523,1040.3622,13,1040.3622z"/>
	<path fill="#8D8D8D" d="M17,1040.3622c-0.5523,0-1,0.4476-1,1c0,0.5522,0.4477,1,1,1s1-0.4478,1-1
		C18,1040.8098,17.5523,1040.3622,17,1040.3622z"/>
	<path fill="#8D8D8D" d="M21,1040.3622c-0.5523,0-1,0.4476-1,1c0,0.5522,0.4477,1,1,1s1-0.4478,1-1
		C22,1040.8098,21.5523,1040.3622,21,1040.3622z"/>
	<path fill="#8D8D8D" d="M25,1040.3622c-0.5523,0-1,0.4476-1,1c0,0.5522,0.4477,1,1,1s1-0.4478,1-1
		C26,1040.8098,25.5523,1040.3622,25,1040.3622z"/>
	<path fill="#8D8D8D" d="M29,1040.3622c-0.5523,0-1,0.4476-1,1c0,0.5522,0.4477,1,1,1s1-0.4478,1-1
		C30,1040.8098,29.5523,1040.3622,29,1040.3622z"/>
	<path fill="#8D8D8D" d="M33,1040.3622c-0.5523,0-1,0.4476-1,1c0,0.5522,0.4477,1,1,1s1-0.4478,1-1
		C34,1040.8098,33.5523,1040.3622,33,1040.3622z"/>
	<path fill="#8D8D8D" d="M37,1040.3622c-0.5523,0-1,0.4476-1,1c0,0.5522,0.4477,1,1,1s1-0.4478,1-1
		C38,1040.8098,37.5523,1040.3622,37,1040.3622z"/>
	<path fill="#8D8D8D" d="M41,1040.3622c-0.5523,0-1,0.4476-1,1c0,0.5522,0.4477,1,1,1s1-0.4478,1-1
		C42,1040.8098,41.5523,1040.3622,41,1040.3622z"/>
	<path fill="#8D8D8D" d="M45,1040.3622c-0.5523,0-1,0.4476-1,1c0,0.5522,0.4477,1,1,1s1-0.4478,1-1
		C46,1040.8098,45.5523,1040.3622,45,1040.3622z"/>
	<path fill="#8D8D8D" d="M49,1040.3622c-0.5523,0-1,0.4476-1,1c0,0.5522,0.4477,1,1,1s1-0.4478,1-1
		C50,1040.8098,49.5523,1040.3622,49,1040.3622z"/>
	<path fill="#8D8D8D" d="M53,1040.3622c-0.5523,0-1,0.4476-1,1c0,0.5522,0.4477,1,1,1s1-0.4478,1-1
		C54,1040.8098,53.5523,1040.3622,53,1040.3622z"/>
	<path fill="#8D8D8D" d="M57,1040.3622c-0.5523,0-1,0.4476-1,1c0,0.5522,0.4477,1,1,1s1-0.4478,1-1
		C58,1040.8098,57.5523,1040.3622,57,1040.3622z"/>
	<path fill="#8D8D8D" d="M61,1040.3622c-0.5523,0-1,0.4476-1,1c0,0.5522,0.4477,1,1,1s1-0.4478,1-1
		C62,1040.8098,61.5523,1040.3622,61,1040.3622z"/>
	<path fill="#8D8D8D" d="M3,1042.3622c-0.5523,0-1,0.4476-1,1c0,0.5522,0.4477,1,1,1s1-0.4478,1-1
		C4,1042.8098,3.5523,1042.3622,3,1042.3622z"/>
	<path fill="#8D8D8D" d="M7,1042.3622c-0.5523,0-1,0.4476-1,1c0,0.5522,0.4477,1,1,1s1-0.4478,1-1
		C8,1042.8098,7.5523,1042.3622,7,1042.3622z"/>
	<path fill="#8D8D8D" d="M11,1042.3622c-0.5523,0-1,0.4476-1,1c0,0.5522,0.4477,1,1,1s1-0.4478,1-1
		C12,1042.8098,11.5523,1042.3622,11,1042.3622z"/>
	<path fill="#8D8D8D" d="M15,1042.3622c-0.5523,0-1,0.4476-1,1c0,0.5522,0.4477,1,1,1s1-0.4478,1-1
		C16,1042.8098,15.5523,1042.3622,15,1042.3622z"/>
	<path fill="#8D8D8D" d="M19,1042.3622c-0.5523,0-1,0.4476-1,1c0,0.5522,0.4477,1,1,1s1-0.4478,1-1
		C20,1042.8098,19.5523,1042.3622,19,1042.3622z"/>
	<path fill="#8D8D8D" d="M23,1042.3622c-0.5523,0-1,0.4476-1,1c0,0.5522,0.4477,1,1,1s1-0.4478,1-1
		C24,1042.8098,23.5523,1042.3622,23,1042.3622z"/>
	<path fill="#8D8D8D" d="M27,1042.3622c-0.5523,0-1,0.4476-1,1c0,0.5522,0.4477,1,1,1s1-0.4478,1-1
		C28,1042.8098,27.5523,1042.3622,27,1042.3622z"/>
	<path fill="#8D8D8D" d="M31,1042.3622c-0.5523,0-1,0.4476-1,1c0,0.5522,0.4477,1,1,1s1-0.4478,1-1
		C32,1042.8098,31.5523,1042.3622,31,1042.3622z"/>
	<path fill="#8D8D8D" d="M35,1042.3622c-0.5523,0-1,0.4476-1,1c0,0.5522,0.4477,1,1,1s1-0.4478,1-1
		C36,1042.8098,35.5523,1042.3622,35,1042.3622z"/>
	<path fill="#8D8D8D" d="M39,1042.3622c-0.5523,0-1,0.4476-1,1c0,0.5522,0.4477,1,1,1s1-0.4478,1-1
		C40,1042.8098,39.5523,1042.3622,39,1042.3622z"/>
	<path fill="#8E8E8E" d="M43,1042.3622c-0.5523,0-1,0.4476-1,1c0,0.5522,0.4477,1,1,1s1-0.4478,1-1
		C44,1042.8098,43.5523,1042.3622,43,1042.3622z"/>
	<path fill="#8D8D8D" d="M47,1042.3622c-0.5523,0-1,0.4476-1,1c0,0.5522,0.4477,1,1,1s1-0.4478,1-1
		C48,1042.8098,47.5523,1042.3622,47,1042.3622z"/>
	<path fill="#8D8D8D" d="M51,1042.3622c-0.5523,0-1,0.4476-1,1c0,0.5522,0.4477,1,1,1s1-0.4478,1-1
		C52,1042.8098,51.5523,1042.3622,51,1042.3622z"/>
	<path fill="#8D8D8D" d="M55,1042.3622c-0.5523,0-1,0.4476-1,1c0,0.5522,0.4477,1,1,1s1-0.4478,1-1
		C56,1042.8098,55.5523,1042.3622,55,1042.3622z"/>
	<path fill="#8D8D8D" d="M59,1042.3622c-0.5523,0-1,0.4476-1,1c0,0.5522,0.4477,1,1,1s1-0.4478,1-1
		C60,1042.8098,59.5523,1042.3622,59,1042.3622z"/>
	<path fill="#8D8D8D" d="M63,1042.3622c-0.5523,0-1,0.4476-1,1c0,0.5522,0.4477,1,1,1s1-0.4478,1-1
		C64,1042.8098,63.5523,1042.3622,63,1042.3622z"/>
	<path fill="#8D8D8D" d="M13,1043.8622c-0.5523,0-1,0.4478-1,1c0,0.5522,0.4477,1,1,1s1-0.4478,1-1
		C14,1044.3099,13.5523,1043.8622,13,1043.8622z"/>
	<path fill="#8D8D8D" d="M45,1043.8622c-0.5523,0-1,0.4478-1,1c0,0.5522,0.4477,1,1,1s1-0.4478,1-1
		C46,1044.3099,45.5523,1043.8622,45,1043.8622z"/>
	<path fill="#8D8D8D" d="M1,1044.3622c-0.5523,0-1,0.4476-1,1c0,0.5522,0.4477,1,1,1s1-0.4478,1-1
		C2,1044.8098,1.5523,1044.3622,1,1044.3622z"/>
	<path fill="#8D8D8D" d="M5,1044.3622c-0.5523,0-1,0.4476-1,1c0,0.5522,0.4477,1,1,1s1-0.4478,1-1
		C6,1044.8098,5.5523,1044.3622,5,1044.3622z"/>
	<path fill="#8D8D8D" d="M9,1044.3622c-0.5523,0-1,0.4476-1,1c0,0.5522,0.4477,1,1,1s1-0.4478,1-1
		C10,1044.8098,9.5523,1044.3622,9,1044.3622z"/>
	<path fill="#8D8D8D" d="M17,1044.3622c-0.5523,0-1,0.4476-1,1c0,0.5522,0.4477,1,1,1s1-0.4478,1-1
		C18,1044.8098,17.5523,1044.3622,17,1044.3622z"/>
	<path fill="#8D8D8D" d="M21,1044.3622c-0.5523,0-1,0.4476-1,1c0,0.5522,0.4477,1,1,1s1-0.4478,1-1
		C22,1044.8098,21.5523,1044.3622,21,1044.3622z"/>
	<path fill="#8D8D8D" d="M25,1044.3622c-0.5523,0-1,0.4476-1,1c0,0.5522,0.4477,1,1,1s1-0.4478,1-1
		C26,1044.8098,25.5523,1044.3622,25,1044.3622z"/>
	<path fill="#8D8D8D" d="M29,1044.3622c-0.5523,0-1,0.4476-1,1c0,0.5522,0.4477,1,1,1s1-0.4478,1-1
		C30,1044.8098,29.5523,1044.3622,29,1044.3622z"/>
	<path fill="#8D8D8D" d="M33,1044.3622c-0.5523,0-1,0.4476-1,1c0,0.5522,0.4477,1,1,1s1-0.4478,1-1
		C34,1044.8098,33.5523,1044.3622,33,1044.3622z"/>
	<path fill="#A3A3A3" d="M37,1044.3622c-0.5523,0-1,0.4476-1,1c0,0.5522,0.4477,1,1,1s1-0.4478,1-1
		C38,1044.8098,37.5523,1044.3622,37,1044.3622z"/>
	<path fill="#8D8D8D" d="M41,1044.3622c-0.5523,0-1,0.4476-1,1c0,0.5522,0.4477,1,1,1s1-0.4478,1-1
		C42,1044.8098,41.5523,1044.3622,41,1044.3622z"/>
	<path fill="#8D8D8D" d="M49,1044.3622c-0.5523,0-1,0.4476-1,1c0,0.5522,0.4477,1,1,1s1-0.4478,1-1
		C50,1044.8098,49.5523,1044.3622,49,1044.3622z"/>
	<path fill="#8D8D8D" d="M53,1044.3622c-0.5523,0-1,0.4476-1,1c0,0.5522,0.4477,1,1,1s1-0.4478,1-1
		C54,1044.8098,53.5523,1044.3622,53,1044.3622z"/>
	<path fill="#8D8D8D" d="M57,1044.3622c-0.5523,0-1,0.4476-1,1c0,0.5522,0.4477,1,1,1s1-0.4478,1-1
		C58,1044.8098,57.5523,1044.3622,57,1044.3622z"/>
	<path fill="#8D8D8D" d="M61,1044.3622c-0.5523,0-1,0.4476-1,1c0,0.5522,0.4477,1,1,1s1-0.4478,1-1
		C62,1044.8098,61.5523,1044.3622,61,1044.3622z"/>
	<path fill="#8D8D8D" d="M3,1046.3622c-0.5523,0-1,0.4476-1,1c0,0.5522,0.4477,1,1,1s1-0.4478,1-1
		C4,1046.8098,3.5523,1046.3622,3,1046.3622z"/>
	<path fill="#8D8D8D" d="M7,1046.3622c-0.5523,0-1,0.4476-1,1c0,0.5522,0.4477,1,1,1s1-0.4478,1-1
		C8,1046.8098,7.5523,1046.3622,7,1046.3622z"/>
	<path fill="#8D8D8D" d="M11,1046.3622c-0.5523,0-1,0.4476-1,1c0,0.5522,0.4477,1,1,1s1-0.4478,1-1
		C12,1046.8098,11.5523,1046.3622,11,1046.3622z"/>
	<path fill="#8D8D8D" d="M15,1046.3622c-0.5523,0-1,0.4476-1,1c0,0.5522,0.4477,1,1,1s1-0.4478,1-1
		C16,1046.8098,15.5523,1046.3622,15,1046.3622z"/>
	<path fill="#8D8D8D" fill-opacity="0.7295" d="M19,1046.3622c-0.5523,0-1,0.4476-1,1c0,0.5522,0.4477,1,1,1s1-0.4478,1-1
		C20,1046.8098,19.5523,1046.3622,19,1046.3622z"/>
	<path fill="#8D8D8D" d="M23,1046.3622c-0.5523,0-1,0.4476-1,1c0,0.5522,0.4477,1,1,1s1-0.4478,1-1
		C24,1046.8098,23.5523,1046.3622,23,1046.3622z"/>
	<path fill="#8D8D8D" d="M27,1046.3622c-0.5523,0-1,0.4476-1,1c0,0.5522,0.4477,1,1,1s1-0.4478,1-1
		C28,1046.8098,27.5523,1046.3622,27,1046.3622z"/>
	<path fill="#8D8D8D" d="M31,1046.3622c-0.5523,0-1,0.4476-1,1c0,0.5522,0.4477,1,1,1s1-0.4478,1-1
		C32,1046.8098,31.5523,1046.3622,31,1046.3622z"/>
	<path fill="#8D8D8D" d="M35,1046.3622c-0.5523,0-1,0.4476-1,1c0,0.5522,0.4477,1,1,1s1-0.4478,1-1
		C36,1046.8098,35.5523,1046.3622,35,1046.3622z"/>
	<path fill="#8D8D8D" d="M39,1046.3622c-0.5523,0-1,0.4476-1,1c0,0.5522,0.4477,1,1,1s1-0.4478,1-1
		C40,1046.8098,39.5523,1046.3622,39,1046.3622z"/>
	<path fill="#787878" d="M43,1046.3622c-0.5523,0-1,0.4476-1,1c0,0.5522,0.4477,1,1,1s1-0.4478,1-1
		C44,1046.8098,43.5523,1046.3622,43,1046.3622z"/>
	<path fill="#8D8D8D" d="M47,1046.3622c-0.5523,0-1,0.4476-1,1c0,0.5522,0.4477,1,1,1s1-0.4478,1-1
		C48,1046.8098,47.5523,1046.3622,47,1046.3622z"/>
	<path fill="#8D8D8D" d="M51,1046.3622c-0.5523,0-1,0.4476-1,1c0,0.5522,0.4477,1,1,1s1-0.4478,1-1
		C52,1046.8098,51.5523,1046.3622,51,1046.3622z"/>
	<path fill="#8D8D8D" d="M55,1046.3622c-0.5523,0-1,0.4476-1,1c0,0.5522,0.4477,1,1,1s1-0.4478,1-1
		C56,1046.8098,55.5523,1046.3622,55,1046.3622z"/>
	<path fill="#8D8D8D" d="M59,1046.3622c-0.5523,0-1,0.4476-1,1c0,0.5522,0.4477,1,1,1s1-0.4478,1-1
		C60,1046.8098,59.5523,1046.3622,59,1046.3622z"/>
	<path fill="#8D8D8D" d="M63,1046.3622c-0.5523,0-1,0.4476-1,1c0,0.5522,0.4477,1,1,1s1-0.4478,1-1
		C64,1046.8098,63.5523,1046.3622,63,1046.3622z"/>
	<path fill="#8D8D8D" d="M1,1048.3622c-0.5523,0-1,0.4476-1,1c0,0.5522,0.4477,1,1,1s1-0.4478,1-1
		C2,1048.8098,1.5523,1048.3622,1,1048.3622z"/>
	<path fill="#8D8D8D" d="M5,1048.3622c-0.5523,0-1,0.4476-1,1c0,0.5522,0.4477,1,1,1s1-0.4478,1-1
		C6,1048.8098,5.5523,1048.3622,5,1048.3622z"/>
	<path fill="#8D8D8D" fill-opacity="0.7295" d="M9,1048.3622c-0.5523,0-1,0.4476-1,1c0,0.5522,0.4477,1,1,1s1-0.4478,1-1
		C10,1048.8098,9.5523,1048.3622,9,1048.3622z"/>
	<path fill="#8D8D8D" d="M13,1048.3622c-0.5523,0-1,0.4476-1,1c0,0.5522,0.4477,1,1,1s1-0.4478,1-1
		C14,1048.8098,13.5523,1048.3622,13,1048.3622z"/>
	<path fill="#8D8D8D" d="M17,1048.3622c-0.5523,0-1,0.4476-1,1c0,0.5522,0.4477,1,1,1s1-0.4478,1-1
		C18,1048.8098,17.5523,1048.3622,17,1048.3622z"/>
	<path fill="#8D8D8D" d="M21,1048.3622c-0.5523,0-1,0.4476-1,1c0,0.5522,0.4477,1,1,1s1-0.4478,1-1
		C22,1048.8098,21.5523,1048.3622,21,1048.3622z"/>
	<path fill="#8D8D8D" d="M25,1048.3622c-0.5523,0-1,0.4476-1,1c0,0.5522,0.4477,1,1,1s1-0.4478,1-1
		C26,1048.8098,25.5523,1048.3622,25,1048.3622z"/>
	<path fill="#8D8D8D" d="M29,1048.3622c-0.5523,0-1,0.4476-1,1c0,0.5522,0.4477,1,1,1s1-0.4478,1-1
		C30,1048.8098,29.5523,1048.3622,29,1048.3622z"/>
	<path fill="#8D8D8D" d="M33,1048.3622c-0.5523,0-1,0.4476-1,1c0,0.5522,0.4477,1,1,1s1-0.4478,1-1
		C34,1048.8098,33.5523,1048.3622,33,1048.3622z"/>
	<path fill="#8D8D8D" d="M37,1048.3622c-0.5523,0-1,0.4476-1,1c0,0.5522,0.4477,1,1,1s1-0.4478,1-1
		C38,1048.8098,37.5523,1048.3622,37,1048.3622z"/>
	<path fill="#8D8D8D" d="M41,1048.3622c-0.5523,0-1,0.4476-1,1c0,0.5522,0.4477,1,1,1s1-0.4478,1-1
		C42,1048.8098,41.5523,1048.3622,41,1048.3622z"/>
	<path fill="#8D8D8D" d="M45,1048.3622c-0.5523,0-1,0.4476-1,1c0,0.5522,0.4477,1,1,1s1-0.4478,1-1
		C46,1048.8098,45.5523,1048.3622,45,1048.3622z"/>
	<path fill="#8D8D8D" d="M49,1048.3622c-0.5523,0-1,0.4476-1,1c0,0.5522,0.4477,1,1,1s1-0.4478,1-1
		C50,1048.8098,49.5523,1048.3622,49,1048.3622z"/>
	<path fill="#8D8D8D" d="M53,1048.3622c-0.5523,0-1,0.4476-1,1c0,0.5522,0.4477,1,1,1s1-0.4478,1-1
		C54,1048.8098,53.5523,1048.3622,53,1048.3622z"/>
	<path fill="#8D8D8D" d="M57,1048.3622c-0.5523,0-1,0.4476-1,1c0,0.5522,0.4477,1,1,1s1-0.4478,1-1
		C58,1048.8098,57.5523,1048.3622,57,1048.3622z"/>
	<path fill="#8D8D8D" d="M61,1048.3622c-0.5523,0-1,0.4476-1,1c0,0.5522,0.4477,1,1,1s1-0.4478,1-1
		C62,1048.8098,61.5523,1048.3622,61,1048.3622z"/>
	<path fill="#8D8D8D" d="M3,1050.3622c-0.5523,0-1,0.4476-1,1c0,0.5522,0.4477,1,1,1s1-0.4478,1-1
		C4,1050.8098,3.5523,1050.3622,3,1050.3622z"/>
	<path fill="#9F9F9F" d="M7,1050.3622c-0.5523,0-1,0.4476-1,1c0,0.5522,0.4477,1,1,1s1-0.4478,1-1
		C8,1050.8098,7.5523,1050.3622,7,1050.3622z"/>
	<path fill="#9F9F9F" d="M11,1050.3622c-0.5523,0-1,0.4476-1,1c0,0.5522,0.4477,1,1,1s1-0.4478,1-1
		C12,1050.8098,11.5523,1050.3622,11,1050.3622z"/>
	<path fill="#8D8D8D" d="M15,1050.3622c-0.5523,0-1,0.4476-1,1c0,0.5522,0.4477,1,1,1s1-0.4478,1-1
		C16,1050.8098,15.5523,1050.3622,15,1050.3622z"/>
	<path fill="#8D8D8D" d="M19,1050.3622c-0.5523,0-1,0.4476-1,1c0,0.5522,0.4477,1,1,1s1-0.4478,1-1
		C20,1050.8098,19.5523,1050.3622,19,1050.3622z"/>
	<path fill="#8D8D8D" d="M23,1050.3622c-0.5523,0-1,0.4476-1,1c0,0.5522,0.4477,1,1,1s1-0.4478,1-1
		C24,1050.8098,23.5523,1050.3622,23,1050.3622z"/>
	<path fill="#8D8D8D" d="M27,1050.3622c-0.5523,0-1,0.4476-1,1c0,0.5522,0.4477,1,1,1s1-0.4478,1-1
		C28,1050.8098,27.5523,1050.3622,27,1050.3622z"/>
	<path fill="#8D8D8D" d="M31,1050.3622c-0.5523,0-1,0.4476-1,1c0,0.5522,0.4477,1,1,1s1-0.4478,1-1
		C32,1050.8098,31.5523,1050.3622,31,1050.3622z"/>
	<path fill="#8D8D8D" d="M35,1050.3622c-0.5523,0-1,0.4476-1,1c0,0.5522,0.4477,1,1,1s1-0.4478,1-1
		C36,1050.8098,35.5523,1050.3622,35,1050.3622z"/>
	<path fill="#8D8D8D" d="M39,1050.3622c-0.5523,0-1,0.4476-1,1c0,0.5522,0.4477,1,1,1s1-0.4478,1-1
		C40,1050.8098,39.5523,1050.3622,39,1050.3622z"/>
	<path fill="#9F9F9F" d="M43,1050.3622c-0.5523,0-1,0.4476-1,1c0,0.5522,0.4477,1,1,1s1-0.4478,1-1
		C44,1050.8098,43.5523,1050.3622,43,1050.3622z"/>
	<path fill="#8D8D8D" d="M47,1050.3622c-0.5523,0-1,0.4476-1,1c0,0.5522,0.4477,1,1,1s1-0.4478,1-1
		C48,1050.8098,47.5523,1050.3622,47,1050.3622z"/>
	<path fill="#8D8D8D" d="M51,1050.3622c-0.5523,0-1,0.4476-1,1c0,0.5522,0.4477,1,1,1s1-0.4478,1-1
		C52,1050.8098,51.5523,1050.3622,51,1050.3622z"/>
	<path fill="#8D8D8D" d="M55,1050.3622c-0.5523,0-1,0.4476-1,1c0,0.5522,0.4477,1,1,1s1-0.4478,1-1
		C56,1050.8098,55.5523,1050.3622,55,1050.3622z"/>
	<path fill="#8D8D8D" d="M59,1050.3622c-0.5523,0-1,0.4476-1,1c0,0.5522,0.4477,1,1,1s1-0.4478,1-1
		C60,1050.8098,59.5523,1050.3622,59,1050.3622z"/>
	<path fill="#8D8D8D" d="M63,1050.3622c-0.5523,0-1,0.4476-1,1c0,0.5522,0.4477,1,1,1s1-0.4478,1-1
		C64,1050.8098,63.5523,1050.3622,63,1050.3622z"/>
</g>
</svg>
